<svg width="970" height="600" viewBox="0 0 970 600" fill="none" xmlns="http://www.w3.org/2000/svg">
  <defs>
    <linearGradient id="bg" x1="88" y1="44" x2="872" y2="560" gradientUnits="userSpaceOnUse">
      <stop stop-color="#4B1511"/>
      <stop offset="0.52" stop-color="#7C2620"/>
      <stop offset="1" stop-color="#FFEEED"/>
    </linearGradient>
    <radialGradient id="glowA" cx="0" cy="0" r="1" gradientUnits="userSpaceOnUse" gradientTransform="translate(730 124) rotate(132.89) scale(320 292)">
      <stop stop-color="#FF968E" stop-opacity="0.82"/>
      <stop offset="1" stop-color="#FF968E" stop-opacity="0"/>
    </radialGradient>
    <radialGradient id="glowB" cx="0" cy="0" r="1" gradientUnits="userSpaceOnUse" gradientTransform="translate(238 486) rotate(17.83) scale(330 214)">
      <stop stop-color="#FFDC88" stop-opacity="0.6"/>
      <stop offset="1" stop-color="#FFDC88" stop-opacity="0"/>
    </radialGradient>
    <linearGradient id="panel" x1="106" y1="88" x2="796" y2="498" gradientUnits="userSpaceOnUse">
      <stop stop-color="white" stop-opacity="0.16"/>
      <stop offset="1" stop-color="white" stop-opacity="0.06"/>
    </linearGradient>
    <linearGradient id="accent" x1="594" y1="168" x2="862" y2="446" gradientUnits="userSpaceOnUse">
      <stop stop-color="#FFA9A3"/>
      <stop offset="1" stop-color="#FFF8F8"/>
    </linearGradient>
    <filter id="shadow" x="74" y="56" width="822" height="502" filterUnits="userSpaceOnUse" color-interpolation-filters="sRGB">
      <feFlood flood-opacity="0" result="BackgroundImageFix"/>
      <feColorMatrix in="SourceAlpha" type="matrix" values="0 0 0 0 0 0 0 0 0 0 0 0 0 0 0 0 0 0 127 0" result="hardAlpha"/>
      <feOffset dy="20"/>
      <feGaussianBlur stdDeviation="18"/>
      <feComposite in2="hardAlpha" operator="out"/>
      <feColorMatrix type="matrix" values="0 0 0 0 0.0509804 0 0 0 0 0.113725 0 0 0 0 0.231373 0 0 0 0.25 0"/>
      <feBlend mode="normal" in2="BackgroundImageFix" result="effect1_dropShadow_0_1"/>
      <feBlend mode="normal" in="SourceGraphic" in2="effect1_dropShadow_0_1" result="shape"/>
    </filter>
  </defs>

  <rect width="970" height="600" rx="48" fill="url(#bg)"/>
  <circle cx="742" cy="122" r="236" fill="url(#glowA)"/>
  <circle cx="224" cy="500" r="222" fill="url(#glowB)"/>
  <path d="M70 510C164 430 274 396 374 404C487 412 590 484 716 470C797 462 862 422 910 368" stroke="white" stroke-opacity="0.18" stroke-width="2"/>
  <path d="M112 92C198 132 244 202 238 296C232 390 166 432 108 480" stroke="white" stroke-opacity="0.12" stroke-width="2"/>

  <g filter="url(#shadow)">
    <rect x="110" y="72" width="750" height="430" rx="36" fill="url(#panel)"/>
    <rect x="110.75" y="72.75" width="748.5" height="428.5" rx="35.25" stroke="white" stroke-opacity="0.16" stroke-width="1.5"/>
  </g>

  <rect x="146" y="108" width="156" height="38" rx="19" fill="white" fill-opacity="0.12"/>
  <rect x="156" y="118" width="48" height="18" rx="9" fill="#FFBEB9" fill-opacity="0.55"/>
  <text x="220" y="133" fill="#FFF7F6" font-family="'IBM Plex Sans', 'Segoe UI', sans-serif" font-size="13" font-weight="700" letter-spacing="2.4">OFFICIAL BANNER</text>

  <text x="146" y="208" fill="#FFF7F6" font-family="'IBM Plex Sans', 'Segoe UI', sans-serif" font-size="76" font-weight="700" letter-spacing="-3.2">ИЦЭиТП</text>
  <text x="146" y="250" fill="#FFDCD9" font-family="'IBM Plex Sans', 'Segoe UI', sans-serif" font-size="20" font-weight="600" letter-spacing="1.8">DIGITAL CONFERENCE PLATFORM</text>
  <text x="146" y="314" fill="white" fill-opacity="0.88" font-family="'IBM Plex Sans', 'Segoe UI', sans-serif" font-size="24" font-weight="500">Экономика, право и IT в одной научной среде.</text>
  <text x="146" y="352" fill="#F8D4D1" font-family="'IBM Plex Sans', 'Segoe UI', sans-serif" font-size="20" font-weight="400">Регистрация, программа, чат, карта, документы и материалы</text>
  <text x="146" y="384" fill="#F8D4D1" font-family="'IBM Plex Sans', 'Segoe UI', sans-serif" font-size="20" font-weight="400">конференции в единой современной платформе.</text>

  <rect x="146" y="424" width="212" height="50" rx="25" fill="white"/>
  <text x="188" y="455" fill="#601D18" font-family="'IBM Plex Sans', 'Segoe UI', sans-serif" font-size="18" font-weight="700">970 × 600 px</text>
  <circle cx="170" cy="449" r="8" fill="#80302A"/>

  <g opacity="0.96">
    <rect x="568" y="144" width="244" height="306" rx="32" fill="#4A1410" fill-opacity="0.62"/>
    <rect x="568.8" y="144.8" width="242.4" height="304.4" rx="31.2" stroke="white" stroke-opacity="0.18" stroke-width="1.6"/>
    <rect x="594" y="168" width="192" height="28" rx="14" fill="white" fill-opacity="0.1"/>
    <circle cx="612" cy="182" r="6" fill="#FF968F"/>
    <circle cx="636" cy="182" r="6" fill="#FFCE6A"/>
    <circle cx="660" cy="182" r="6" fill="#89E0A7"/>
    <rect x="594" y="224" width="192" height="86" rx="24" fill="url(#accent)"/>
    <text x="618" y="258" fill="#621C17" font-family="'IBM Plex Sans', 'Segoe UI', sans-serif" font-size="18" font-weight="700">Conference Chat</text>
    <text x="618" y="286" fill="#96453F" font-family="'IBM Plex Sans', 'Segoe UI', sans-serif" font-size="15" font-weight="500">Главный чат и чат вашей секции</text>

    <rect x="594" y="332" width="88" height="88" rx="24" fill="white" fill-opacity="0.11"/>
    <path d="M624 360H652C659.732 360 666 366.268 666 374V390C666 397.732 659.732 404 652 404H639.5L628 414V404H624C616.268 404 610 397.732 610 390V374C610 366.268 616.268 360 624 360Z" stroke="white" stroke-width="3"/>
    <circle cx="628" cy="382" r="4" fill="white"/>
    <circle cx="638" cy="382" r="4" fill="white"/>
    <circle cx="648" cy="382" r="4" fill="white"/>

    <rect x="698" y="332" width="88" height="88" rx="24" fill="white" fill-opacity="0.11"/>
    <path d="M722 360H762V392H742L730 404V392H722V360Z" stroke="white" stroke-width="3"/>
    <path d="M732 372H752" stroke="white" stroke-width="3" stroke-linecap="round"/>
    <path d="M732 382H752" stroke="white" stroke-width="3" stroke-linecap="round"/>

    <rect x="594" y="444" width="192" height="14" rx="7" fill="white" fill-opacity="0.11"/>
  </g>

  <rect x="662" y="500" width="168" height="34" rx="17" fill="white" fill-opacity="0.12"/>
  <text x="687" y="522" fill="#FFF8F8" font-family="'IBM Plex Sans', 'Segoe UI', sans-serif" font-size="14" font-weight="700" letter-spacing="1.4">ECONOMICS • LAW • IT</text>
</svg>
