<svg width="1049" height="722" viewBox="0 0 1049 722" fill="none" xmlns="http://www.w3.org/2000/svg">
<path d="M104.886 381.181C103.106 383.331 101.426 385.061 101.146 385.021C99.3161 384.811 82.1461 372.391 82.1461 371.281C82.1461 370.621 127.316 302.001 130.466 297.881C131.196 296.931 138.286 286.211 146.226 274.081C160.736 251.881 174.576 232.831 200.896 198.821C217.426 177.471 233.936 160.881 252.556 146.921C259.206 141.931 265.766 136.831 267.146 135.581C269.966 133.021 294.486 120.571 303.646 117.041C306.946 115.771 314.966 112.561 321.456 109.891C334.306 104.631 340.376 103.361 375.646 98.5807C386.646 97.0807 396.316 95.5007 397.146 95.0607C398.356 94.4107 398.576 92.3707 398.296 84.1907C398.076 77.6907 398.316 74.1207 398.986 74.1207C399.556 74.1207 400.276 76.0307 400.576 78.3707C400.876 80.7107 401.806 87.5707 402.626 93.6207C403.456 99.6707 404.806 110.241 405.636 117.121C406.466 124.001 407.616 133.441 408.196 138.121C408.766 142.801 410.346 155.851 411.686 167.121C413.036 178.391 414.396 189.141 414.716 191.011L415.286 194.391L423.466 193.831C438.426 192.791 462.556 190.081 469.646 188.651C473.496 187.871 484.976 186.491 495.146 185.581C505.316 184.661 524.896 182.431 538.646 180.621C552.396 178.811 563.986 177.651 564.406 178.041C564.836 178.431 565.056 192.451 564.906 209.181L564.646 239.621L550.146 241.261C542.176 242.161 530.026 243.611 523.146 244.471C516.266 245.341 499.176 247.421 485.146 249.101C471.126 250.771 454.696 252.791 448.646 253.581C427.576 256.321 416.186 257.491 415.656 256.971C415.076 256.381 414.666 253.451 410.256 218.121C408.576 204.641 406.736 190.691 406.176 187.121C405.616 183.551 404.706 176.801 404.146 172.121C401.836 152.811 400.406 143.041 399.806 142.441C399.126 141.761 369.716 145.321 357.146 147.611C353.026 148.351 346.266 149.501 342.146 150.151C329.876 152.081 293.706 166.731 275.146 177.281C269.656 180.401 249.766 194.791 243.146 200.431C241.226 202.061 234.116 208.781 227.356 215.341C215.476 226.861 205.566 239.021 175.356 279.121C159.296 300.431 156.526 304.421 129.606 344.951C117.796 362.731 106.676 379.031 104.886 381.181ZM481.686 671.531C463.006 698.801 447.486 721.101 447.186 721.081C446.886 721.061 440.126 716.501 432.146 710.941C424.166 705.381 413.596 698.061 408.646 694.671C403.696 691.271 390.936 682.451 380.296 675.061C369.656 667.671 357.736 659.421 353.796 656.741C347.256 652.281 342.986 649.301 320.206 633.321C316.046 630.401 308.866 625.451 304.256 622.321C299.636 619.181 293.936 615.271 291.586 613.621C289.236 611.971 284.006 608.381 279.976 605.641C275.946 602.911 270.796 599.201 268.546 597.391C266.286 595.591 264.106 594.121 263.706 594.121C263.306 594.121 260.426 592.171 257.316 589.791C252.556 586.161 232.296 572.001 227.006 568.621C226.146 568.071 220.306 564.111 214.046 559.821C207.776 555.531 199.266 549.721 195.146 546.901C191.026 544.091 158.846 521.901 123.646 497.601C88.4461 473.301 56.0461 450.971 51.6461 447.981C37.6161 438.441 34.2161 436.251 33.3961 433.331C33.1361 432.391 33.1361 431.381 33.1461 430.031C33.1461 429.831 33.1461 429.621 33.1461 429.411V423.891L25.6561 424.591C18.3561 425.271 18.0361 425.201 12.8461 421.951C1.32608 414.741 1.55608 415.131 0.646083 401.061C-0.213917 387.801 -0.143916 381.811 0.956084 373.311L1.64608 368.011L7.14608 372.171C15.4161 378.441 18.3061 379.411 26.3161 378.601C26.6861 378.571 27.0361 378.531 27.3661 378.501C30.4661 378.181 31.9861 378.021 32.7061 378.711C33.3961 379.371 33.3361 380.811 33.2161 383.641C33.2061 383.961 33.1861 384.291 33.1761 384.641C32.9861 389.711 33.3161 390.031 53.6461 403.871C70.6761 415.461 95.1561 432.381 109.146 442.221C113.826 445.511 120.576 450.171 124.146 452.571C127.716 454.981 133.576 459.041 137.146 461.601C140.716 464.161 150.166 470.711 158.146 476.151C175.566 488.031 208.926 511.091 218.136 517.621C223.416 521.361 232.626 527.721 245.646 536.601C252.796 541.481 263.146 548.611 268.646 552.451C274.146 556.291 283.596 562.821 289.646 566.961C295.696 571.111 302.446 575.771 304.646 577.341C309.166 580.551 308.556 580.121 350.646 609.091C367.696 620.821 382.576 631.251 383.706 632.271C384.846 633.291 386.106 634.121 386.506 634.121C386.906 634.121 389.576 635.841 392.436 637.931C395.306 640.031 402.816 645.291 409.146 649.631C415.476 653.961 422.896 659.091 425.646 661.021C442.036 672.531 446.356 675.251 447.546 674.801C448.276 674.521 453.676 667.161 459.556 658.451C465.426 649.741 473.646 637.671 477.816 631.621C481.986 625.571 489.246 615.001 493.946 608.121C498.646 601.241 504.516 592.701 506.986 589.121C509.456 585.541 512.786 580.701 514.386 578.361C515.996 576.021 517.776 574.391 518.356 574.751C519.926 575.721 518.566 617.901 516.906 620.201C516.216 621.151 500.366 644.251 481.686 671.531ZM915.596 249.371C914.846 250.281 914.346 250.961 913.776 251.031C912.466 251.171 910.796 248.031 904.876 236.931L904.176 235.621C898.656 225.261 893.766 216.501 891.496 212.891C890.206 210.841 889.146 208.961 889.146 208.711C889.146 208.051 874.896 181.711 874.216 181.121C873.906 180.851 872.486 178.371 871.056 175.621C858.596 151.551 851.826 140.081 849.816 139.641C848.626 139.381 836.846 138.471 823.646 137.611C774.766 134.461 754.296 133.111 740.646 132.151C718.916 130.611 697.796 129.221 696.146 129.211C693.736 129.201 651.786 126.241 638.346 125.131C623.006 123.871 605.266 123.841 594.146 125.061C568.296 127.891 561.016 128.391 560.026 127.401C559.466 126.841 558.116 119.461 557.036 111.001C554.006 87.3507 553.466 81.0407 554.406 80.4607C554.876 80.1707 561.656 79.3007 569.456 78.5407C577.256 77.7707 589.946 76.4707 597.646 75.6507C612.136 74.1107 622.316 74.5207 683.646 79.0807C691.346 79.6607 701.476 80.3207 706.146 80.5707C718.526 81.2107 811.196 87.4607 833.946 89.1907C840.716 89.7007 847.316 90.1207 848.606 90.1207C850.566 90.1207 851.806 91.7407 856.046 99.8707C858.846 105.231 862.396 111.871 863.946 114.621C867.396 120.721 887.326 157.481 905.176 190.621C907.246 194.471 912.826 204.601 917.566 213.121C922.316 221.641 926.446 229.581 926.746 230.761C927.516 233.691 925.126 237.661 915.596 249.371ZM889.316 412.341C882.896 420.981 877.426 428.051 877.146 428.041C876.866 428.041 871.026 423.811 864.146 418.641C857.266 413.471 848.836 407.131 845.396 404.551L839.146 399.861V377.161C839.146 364.671 839.416 354.191 839.736 353.861C840.356 353.241 844.996 356.431 863.416 370.121C869.336 374.521 875.056 378.121 876.116 378.121C878.026 378.121 880.976 374.361 912.986 331.121C919.296 322.601 925.666 314.041 927.136 312.121C931.576 306.301 941.256 293.381 951.856 279.121C966.436 259.511 972.976 251.081 976.666 247.121C978.466 245.201 981.956 240.471 984.426 236.621C988.996 229.501 994.386 222.191 1013.15 197.611C1018.93 190.041 1024.97 182.001 1026.59 179.741C1028.2 177.471 1032.04 172.471 1035.11 168.621C1038.18 164.771 1041.81 159.941 1043.17 157.881C1044.54 155.821 1045.92 154.131 1046.25 154.131C1047.01 154.121 1048.15 175.171 1048.15 189.221V200.001L1039.36 211.811C1027.44 227.821 1027.7 227.481 1018.71 239.231C1014.35 244.951 1010.49 249.851 1010.13 250.121C1009.77 250.391 1009.07 251.351 1008.56 252.231C1008.06 253.121 1006.45 255.371 1004.99 257.231C1003.53 259.101 996.746 268.041 989.916 277.121C958.556 318.821 944.736 337.311 933.146 353.091C920.576 370.201 910.886 383.301 889.316 412.341ZM505.486 31.3707C506.526 37.9507 506.586 40.5007 505.726 41.6707C503.716 44.4207 503.146 42.0207 503.226 31.2007C503.316 19.1607 503.566 19.1807 505.486 31.3707ZM30.1461 337.871C30.1461 338.561 29.0261 339.121 27.6461 339.121C25.3461 339.121 25.1461 338.751 25.1461 334.621C25.1461 332.141 25.3761 330.121 25.6561 330.121C26.4661 330.121 30.1361 336.471 30.1461 337.871ZM837.646 15.1207C837.306 15.6707 836.606 16.1207 836.086 16.1207C835.566 16.1207 835.146 15.6707 835.146 15.1207C835.146 14.5707 835.846 14.1207 836.706 14.1207C837.566 14.1207 837.986 14.5707 837.646 15.1207Z" fill="#BFBDCF"/>
<path d="M104.886 381.181C106.406 379.351 114.686 367.281 124.396 352.761C113.136 369.791 104.206 383.781 103.916 384.901C103.436 386.741 104.176 387.741 107.986 390.381C110.546 392.161 113.416 394.071 114.356 394.621C115.296 395.171 125.646 402.121 137.356 410.061C149.066 418.001 168.326 430.921 180.146 438.781C203.836 454.511 206.966 456.631 218.646 464.831C223.046 467.921 231.536 473.541 237.516 477.331C243.496 481.121 249.036 484.871 249.836 485.661C250.626 486.461 254.396 488.961 258.216 491.231C262.026 493.491 265.146 495.641 265.146 496.011C265.146 496.371 266.836 497.551 268.896 498.631C270.956 499.721 272.876 500.841 273.146 501.131C273.416 501.421 282.416 507.501 293.146 514.631C303.876 521.761 313.236 528.171 313.966 528.861C314.696 529.551 317.396 531.331 319.966 532.821C322.536 534.311 326.936 537.231 329.736 539.321C332.536 541.411 335.316 543.121 335.906 543.121C336.496 543.121 337.126 543.461 337.316 543.871C337.766 544.891 359.036 559.121 360.116 559.121C360.596 559.121 361.126 559.461 361.316 559.871C361.496 560.291 367.676 564.671 375.046 569.621C382.406 574.571 394.276 582.561 401.406 587.371C408.546 592.181 414.746 596.121 415.196 596.121C416.456 596.121 421.886 589.061 434.006 571.621C440.116 562.821 446.146 554.321 447.386 552.731C451.266 547.761 461.236 532.751 462.466 530.011C463.116 528.571 465.226 526.041 467.146 524.381C470.536 521.471 471.276 521.301 490.156 519.241C500.886 518.081 510.376 517.121 511.256 517.121C512.566 517.121 513.066 519.341 514.056 529.371C514.716 536.111 516.186 549.271 517.326 558.621C518.436 567.811 518.936 573.531 519.006 581.181C518.936 577.471 518.726 574.981 518.356 574.751C517.776 574.391 515.996 576.021 514.386 578.361C512.786 580.701 509.456 585.541 506.986 589.121C504.516 592.701 498.646 601.241 493.946 608.121C489.246 615.001 481.986 625.571 477.816 631.621C473.646 637.671 465.426 649.741 459.556 658.451C453.676 667.161 448.276 674.521 447.546 674.801C446.356 675.251 442.036 672.531 425.646 661.021C422.896 659.091 415.476 653.961 409.146 649.631C402.816 645.291 395.306 640.031 392.436 637.931C389.576 635.841 386.906 634.121 386.506 634.121C386.106 634.121 384.846 633.291 383.706 632.271C382.576 631.251 367.696 620.821 350.646 609.091C308.556 580.121 309.166 580.551 304.646 577.341C302.446 575.771 295.696 571.111 289.646 566.961C283.596 562.821 274.146 556.291 268.646 552.451C263.146 548.611 252.796 541.481 245.646 536.601C232.626 527.721 223.416 521.361 218.136 517.621C208.926 511.091 175.566 488.031 158.146 476.151C150.166 470.711 140.716 464.161 137.146 461.601C133.576 459.041 127.716 454.981 124.146 452.571C120.576 450.171 113.826 445.511 109.146 442.221C95.1561 432.381 70.6761 415.461 53.6461 403.871C33.3161 390.031 32.9861 389.711 33.1761 384.641C33.1861 384.291 33.2061 383.961 33.2161 383.641C33.3361 380.811 33.3961 379.371 32.7061 378.711C31.9861 378.021 30.4661 378.181 27.3661 378.501C27.0361 378.531 26.6861 378.571 26.3161 378.601C18.3061 379.411 15.4161 378.441 7.14608 372.171L1.64608 368.011L0.956083 373.311C0.766083 374.751 0.616083 376.111 0.486083 377.451C0.646083 375.051 0.856083 372.201 1.10608 368.681C1.95608 356.751 2.48608 353.991 4.76608 349.471C7.89608 343.281 12.7261 339.691 19.0361 338.861C23.9661 338.201 25.1061 337.021 25.1261 332.521C25.1361 332.271 25.1861 331.951 25.2861 331.561C25.1961 332.371 25.1461 333.441 25.1461 334.621C25.1461 338.751 25.3461 339.121 27.6461 339.121C29.0261 339.121 30.1461 338.561 30.1461 337.871C30.1361 336.521 26.7061 330.551 25.7561 330.141C27.3761 325.901 31.8361 318.221 35.1061 314.411C35.6761 313.751 36.1461 312.991 36.1461 312.721C36.1461 312.461 39.8561 306.691 44.3961 299.911C59.7261 277.011 68.8761 262.631 69.6061 260.301C69.9961 259.031 71.5761 256.561 73.1161 254.801C74.6461 253.051 85.7061 237.001 97.6761 219.121C119.916 185.921 128.466 174.201 151.766 145.031C172.386 119.211 200.816 92.5507 223.396 77.8407C227.656 75.0607 231.146 72.4107 231.146 71.9507C231.146 71.5007 231.636 71.1207 232.246 71.1207C232.846 71.1207 234.746 70.1107 236.466 68.8707C238.196 67.6307 240.336 66.1707 241.226 65.6207C242.116 65.0707 245.046 63.1707 247.746 61.3907C250.436 59.6107 253.556 58.1507 254.676 58.1407C255.786 58.1307 257.726 57.4007 258.976 56.5207C263.236 53.5407 278.246 46.2607 281.446 45.6207C283.206 45.2607 288.026 43.9207 292.146 42.6307C296.366 41.3107 306.216 39.5607 314.646 38.6407C322.896 37.7407 330.996 36.6007 332.646 36.1107C334.296 35.6207 339.476 34.9407 344.146 34.6007C356.566 33.7107 393.616 29.3807 408.646 27.0707C415.796 25.9707 424.346 24.6607 427.646 24.1607C430.946 23.6507 436.686 22.9407 440.396 22.5607L447.146 21.8907L447.156 26.7507C447.156 31.1807 448.306 40.3307 449.746 47.3707C450.246 49.8307 450.736 50.1207 454.416 50.1207C456.676 50.1207 463.956 49.2407 470.586 48.1607C477.216 47.0807 487.146 45.6107 492.646 44.9007L502.646 43.6007L503.196 12.1207H507.176C509.356 12.1207 511.146 11.7607 511.146 11.3207C511.146 10.8807 516.436 9.98073 522.896 9.32073C529.356 8.67073 540.946 7.44073 548.646 6.61073C556.346 5.77073 567.146 4.63073 572.646 4.07073C578.146 3.51073 586.476 2.34073 591.146 1.48073C594.366 0.880729 596.296 0.470729 598.246 0.230729C602.216 -0.249271 606.266 0.0207281 621.576 1.03073C623.566 1.16073 625.746 1.31073 628.146 1.46073C684.366 5.14073 711.406 6.84073 733.646 8.11073C759.996 9.62073 781.596 10.9607 808.646 12.7507C818.286 13.3807 828.816 14.0007 835.716 14.3507C835.366 14.5307 835.146 14.8107 835.146 15.1207C835.146 15.6707 835.566 16.1207 836.086 16.1207C836.606 16.1207 837.306 15.6707 837.646 15.1207C837.806 14.8607 837.796 14.6207 837.646 14.4407C839.306 14.5207 840.666 14.5807 841.646 14.6107C846.596 14.7607 851.316 15.1207 852.146 15.4207C852.976 15.7207 866.246 16.6907 881.646 17.5907C954.706 21.8307 995.956 24.6007 996.666 25.3107C997.166 25.8107 1005.41 45.3707 1008.8 54.1207C1010.19 57.6907 1011.7 61.0807 1012.16 61.6407C1012.63 62.2007 1015.56 69.1707 1018.67 77.1407C1021.79 85.1007 1024.95 92.9707 1025.71 94.6207C1030.39 104.841 1042.23 135.631 1041.98 136.931C1041.9 137.311 1042.64 139.421 1043.61 141.621C1044.59 143.821 1045.83 146.741 1046.36 148.121C1046.85 149.381 1047.44 159.671 1047.74 171.751C1047.34 162.241 1046.72 154.121 1046.25 154.131C1045.92 154.131 1044.54 155.821 1043.17 157.881C1041.81 159.941 1038.18 164.771 1035.11 168.621C1032.04 172.471 1028.2 177.471 1026.59 179.741C1024.97 182.001 1018.93 190.041 1013.15 197.611C994.386 222.191 988.996 229.501 984.426 236.621C981.956 240.471 978.466 245.201 976.666 247.121C972.976 251.081 966.436 259.511 951.856 279.121C941.256 293.381 931.576 306.301 927.136 312.121C925.666 314.041 919.296 322.601 912.986 331.121C880.976 374.361 878.026 378.121 876.116 378.121C875.056 378.121 869.336 374.521 863.416 370.121C844.996 356.431 840.356 353.241 839.736 353.861C839.416 354.191 839.146 364.671 839.146 377.161V394.171L838.926 376.391C838.716 358.281 838.936 352.751 839.896 352.381C840.586 352.121 841.146 351.361 841.146 350.701C841.146 350.041 841.956 348.621 842.936 347.561C843.926 346.491 846.126 343.601 847.826 341.121C849.526 338.641 852.316 335.041 854.016 333.121C855.716 331.201 857.126 329.351 857.126 329.021C857.136 328.691 858.036 327.341 859.126 326.021C862.006 322.531 862.486 321.891 864.286 319.121C865.186 317.741 866.756 315.651 867.776 314.461C868.806 313.281 870.316 311.291 871.146 310.051C871.976 308.811 876.366 303.141 880.906 297.431C885.446 291.731 890.546 284.601 892.246 281.591C893.946 278.581 895.666 276.121 896.056 276.121C896.696 276.121 899.316 272.611 910.356 256.991C913.006 253.261 913.026 253.071 911.436 249.891C910.536 248.091 909.246 245.501 908.566 244.121C904.776 236.431 894.666 217.921 891.496 212.891C893.766 216.501 898.656 225.261 904.176 235.621L904.876 236.931C910.796 248.031 912.466 251.171 913.776 251.031C914.346 250.961 914.846 250.281 915.596 249.371C925.126 237.661 927.516 233.691 926.746 230.761C926.446 229.581 922.316 221.641 917.566 213.121C912.826 204.601 907.246 194.471 905.176 190.621C887.326 157.481 867.396 120.721 863.946 114.621C862.396 111.871 858.846 105.231 856.046 99.8707C851.806 91.7407 850.566 90.1207 848.606 90.1207C847.316 90.1207 840.716 89.7007 833.946 89.1907C811.196 87.4607 718.526 81.2107 706.146 80.5707C701.476 80.3207 691.346 79.6607 683.646 79.0807C622.316 74.5207 612.136 74.1107 597.646 75.6507C589.946 76.4707 577.256 77.7707 569.456 78.5407C561.656 79.3007 554.876 80.1707 554.406 80.4607C553.466 81.0407 554.006 87.3507 557.036 111.001C558.116 119.461 559.466 126.841 560.026 127.401C560.676 128.051 564.046 128.061 573.616 127.181L573.476 127.201C566.786 127.861 560.736 128.761 560.036 129.191C559.026 129.821 559.426 135.351 562.016 156.301C563.226 166.031 563.976 172.371 564.436 178.091C564.426 178.061 564.416 178.051 564.406 178.041C563.986 177.651 552.396 178.811 538.646 180.621C524.896 182.431 505.316 184.661 495.146 185.581C484.976 186.491 473.496 187.871 469.646 188.651C462.556 190.081 438.426 192.791 423.466 193.831L415.286 194.391L414.716 191.011C414.396 189.141 413.036 178.391 411.686 167.121C410.346 155.851 408.766 142.801 408.196 138.121C407.616 133.441 406.466 124.001 405.636 117.121C404.806 110.241 403.456 99.6707 402.626 93.6207C401.806 87.5707 400.876 80.7107 400.576 78.3707C400.276 76.0307 399.556 74.1207 398.986 74.1207C398.316 74.1207 398.076 77.6907 398.296 84.1907C398.576 92.3707 398.356 94.4107 397.146 95.0607C396.316 95.5007 386.646 97.0807 375.646 98.5807C340.376 103.361 334.306 104.631 321.456 109.891C314.966 112.561 306.946 115.771 303.646 117.041C294.486 120.571 269.966 133.021 267.146 135.581C265.766 136.831 259.206 141.931 252.556 146.921C233.936 160.881 217.426 177.471 200.896 198.821C174.576 232.831 160.736 251.881 146.226 274.081C138.286 286.211 131.196 296.931 130.466 297.881C127.316 302.001 82.1461 370.621 82.1461 371.281C82.1461 372.391 99.3161 384.811 101.146 385.021C101.426 385.061 103.106 383.331 104.886 381.181ZM505.486 31.3707C503.566 19.1807 503.316 19.1607 503.226 31.2007C503.146 42.0207 503.716 44.4207 505.726 41.6707C506.586 40.5007 506.526 37.9507 505.486 31.3707ZM564.776 183.191C565.146 190.291 565.106 197.711 564.956 211.121L564.646 239.621L564.906 209.181C565.006 198.441 564.946 188.811 564.776 183.191ZM0.0860824 384.441C-0.0139176 388.891 0.186083 393.921 0.646083 401.061C1.08608 407.801 1.25608 411.221 2.58608 413.751C1.25608 411.221 1.07608 407.801 0.636083 401.061C0.256083 395.301 0.0360825 392.101 0.00608251 388.911C-0.0139175 387.491 0.0160824 386.081 0.0860824 384.441ZM877.296 427.921C877.986 427.241 880.706 423.771 884.326 419.001C880.506 424.111 877.976 427.471 877.556 427.981C877.526 428.011 877.446 427.991 877.296 427.921ZM518.456 606.121C518.066 614.821 517.566 619.281 516.906 620.201C517.496 619.381 518.056 613.441 518.456 606.121ZM1048.15 192.071L1048.3 199.801L1048.15 200.001V192.071ZM925.306 363.741C927.886 360.241 930.446 356.761 933.146 353.091C939.616 344.281 946.776 334.631 957.296 320.571C946.746 334.671 939.626 344.271 933.146 353.101C930.916 356.131 928.256 359.751 925.306 363.741ZM144.606 322.421C153.076 309.771 158.036 302.571 163.446 295.111C158.146 302.421 153.186 309.621 144.606 322.421ZM839.216 399.911L845.396 404.551C846.206 405.151 847.286 405.961 848.556 406.921C847.546 406.161 846.506 405.381 845.426 404.581L839.216 399.911Z" fill="#D1CEE2"/>
</svg>
