<?xml version="1.0" encoding="UTF-8"?> <svg xmlns="http://www.w3.org/2000/svg" id="_Слой_2" data-name="Слой 2" viewBox="0 0 402.23 558.13"><defs><style> .cls-1, .cls-2 { fill: #fff; } .cls-2 { fill-rule: evenodd; } </style></defs><g id="_Слой_2-2" data-name=" Слой 2"><g id="_Слой_1-2" data-name=" Слой 1-2"><g><path class="cls-2" d="m201.16,558.13c110.61,0,201.07-90.45,201.07-201.07v-198.44H.09v198.44c0,110.61,90.45,201.07,201.07,201.07M24.78,183.31h352.75v173.75c0,96.99-79.39,176.37-176.37,176.37S24.78,454.04,24.78,357.06v-173.75h0Z"></path><path class="cls-2" d="m397.88,29.8h4.34v-1.83h-40.15v1.83h5.11l-3.13,71.72h-15.34v-5.1h1.6v-4.27h-.51v1.55h-1.03v-1.55h-.64v1.55h-1.04v-1.55h-.64v1.55h-1.03v-1.55h-.64v1.55h-1.03v-1.55h-.64v1.55h-1.03v-1.55h-.64v1.55h-1.03v-1.55h-.64v1.55h-1.03v-1.55h-.51v4.27h1.6v5.1h-16.94v-5.1h1.61v-4.27h-.51v1.55h-1.03v-1.55h-.64v1.55h-1.03v-1.55h-.63v1.55h-1.04v-1.55h-.64v1.55h-1.03v-1.55h-.64v1.55h-1.03v-1.55h-.64v1.55h-1.03v-1.55h-.64v1.55h-1.04v-1.55h-.51v4.27h1.6v5.1h-16.94v-5.1h1.6v-4.27h-.51v1.55h-1.03v-1.55h-.64v1.55h-1.03v-1.55h-.64v1.55h-1.03v-1.55h-.64v1.55h-1.03v-1.55h-.64v1.55h-1.04v-1.55h-.64v1.55h-1.03v-1.55h-.64v1.55h-1.03v-1.55h-.51v4.27h1.6v5.1h-15.33v-29.29h-6.95v-13.47h-31.34c-.08-15.26-12.3-27.78-27.45-28.35V12.97c.84-.3,1.93-.59,3.07-.59,1.02,0,1.92.23,2.68.69v1.03c0,.23.18.43.41.45.03,0,.75.06,1.8.06,2.93,0,6.7-.43,8.02-2.45.05-.07.07-.16.07-.25V1.37c0-.17-.1-.33-.25-.4-.15-.08-.34-.06-.48.04-1.4,1.02-3.06,1.54-4.95,1.54-.99,0-1.79-.15-2.21-.25v-.93c0-.15-.07-.29-.2-.38-.98-.66-2.13-.99-3.41-.99-2.12,0-4.13.9-5.35,1.57h-1.38v28.83c-15.14.57-27.36,13.09-27.45,28.35h-31.34v13.47h-6.95v29.29h-15.34v-5.1h1.6v-4.27h-.51v1.55h-1.04v-1.55h-.64v1.55h-1.03v-1.55h-.64v1.55h-1.03v-1.55h-.64v1.55h-1.03v-1.55h-.64v1.55h-1.03v-1.55h-.64v1.55h-1.03v-1.55h-.64v1.55h-1.03v-1.55h-.51v4.27h1.61v5.1h-16.94v-5.1h1.6v-4.27h-.51v1.55h-1.03v-1.55h-.64v1.55h-1.04v-1.55h-.64v1.55h-1.03v-1.55h-.64v1.55h-1.03v-1.55h-.64v1.55h-1.03v-1.55h-.64v1.55h-1.03v-1.55h-.64v1.55h-1.03v-1.55h-.51v4.27h1.6v5.1h-16.94v-5.1h1.6v-4.27h-.51v1.55h-1.03v-1.55h-.64v1.55h-1.03v-1.55h-.64v1.55h-1.03v-1.55h-.64v1.55h-1.03v-1.55h-.64v1.55h-1.03v-1.55h-.64v1.55h-1.03v-1.55h-.64v1.55h-1.03v-1.55h-.51v4.27h1.6v5.1h-15.34v-37.66h-3.19v4.72h-3.22v-4.72h-3.19v4.72h-3.21v-4.72h-3.19v4.72h-1.13v-9.34c.3,0,.54-.24.54-.54v-6.7h.54c.3,0,.54-.24.54-.54v-1.14c0-.3-.24-.54-.54-.54h-.69l-2.31-13.49c.14-.1.23-.26.23-.44v-1.14c0-.3-.24-.54-.54-.54h-.06l-.7-4.06c0-.08,0-.16-.04-.23l-1.06-6.17c.1-.1.16-.23.16-.38v-1.15c0-.28-.23-.52-.51-.54l-.28-1.68c.25-.04.45-.26.45-.53v-1.14c0-.3-.24-.54-.54-.54h-4.12c-.3,0-.54.24-.54.54v1.14c0,.26.19.48.43.53l-.28,1.68c-.28.02-.5.25-.5.54v1.15c0,.14.06.28.15.37l-1.78,10.48h-.07c-.3,0-.54.24-.54.54v1.14c0,.19.1.35.24.45l-2.29,13.48h-.74c-.29,0-.54.24-.54.54v1.14c0,.3.24.54.54.54h.54v6.7c0,.3.24.54.54.54v9.34h-1.12v-4.72h-3.19v4.72h-3.22v-4.72h-3.19v4.72h-3.22v-4.72H0v78.54h402.13l-4.34-112.61h.09ZM24.83,19.98h.35l.28,1.67h-.64v-1.67h.01Zm0,3.89h.24l-.24.16v-.16Zm0,1.44l1.14-.74.78,4.54-1.92-1v-2.8Zm0,4.01l1.58.82-1.58,1.04v-1.86Zm0,3.14l2.24-1.47.55,3.19h-2.79v-1.72Zm0,3.94h3.16l.52,3.04-3.69-1.87v-1.17h.01Zm0,2.37l2.89,1.47-2.89,1.21v-2.68Zm-1.42,11.02h-5.44l.73-4.32,4.7,2.31v2.01h.01Zm0-3.2l-3.73-1.83,3.73-1.56v3.39Zm0-4.55l-4.43,1.85,1.27-7.44,3.16,1.61v3.99h0Zm0-5.2l-.87-.45h.87v.45Zm0-2.66h-1.21l1.21-.79v.79Zm0-2.08l-2.73,1.79,1.05-6.19,1.68.87v3.52h0Zm0-4.73l-.96-.5.96-.63v1.13Zm0-2.41l-1.36.89.34-1.97h1.03v1.08h0Zm0-3.3h-.65l.28-1.67h.37v1.67Zm1.42,28.14v-1.31l2.67,1.31h-2.67Zm5.1,0l-5.1-2.51v-4.68l3.95-1.65,1.52,8.83h-.37Zm349.38.18c0-1.73,1.28-3.14,2.85-3.14s2.85,1.41,2.85,3.14v3.48h-5.7v-3.48Zm-.4,4h6.5v.75h-6.5v-.75Zm6.1,19.1v3.48h-5.7v-3.48c0-1.73,1.28-3.14,2.85-3.14s2.85,1.41,2.85,3.14m-6.1,4h6.5v.76h-6.5v-.76Zm8.73,39.11h-10.97v-6.69c0-3.33,2.47-6.05,5.48-6.05s5.48,2.72,5.48,6.05v6.69h0Z"></path></g><g><g><rect class="cls-1" x="129.02" y="278.87" width="5.27" height="5.27"></rect><path class="cls-1" d="m125.51,275.36v12.3h12.3v-12.3h-12.3Zm10.54,10.54h-8.78v-8.77h8.78v8.77Z"></path><rect class="cls-1" x="167.66" y="240.23" width="5.27" height="5.27"></rect><path class="cls-1" d="m164.15,236.72v12.29h12.29v-12.29h-12.29Zm10.54,10.54h-8.78v-8.78h8.78v8.78Z"></path><rect class="cls-1" x="129.02" y="240.23" width="5.27" height="5.27"></rect><path class="cls-1" d="m125.51,236.72v12.29h12.3v-12.29h-12.3Zm10.54,10.54h-8.78v-8.78h8.78v8.78Z"></path><rect class="cls-1" x="148.34" y="236.72" width="1.76" height="1.76"></rect><polygon class="cls-1" points="155.37 240.23 157.12 240.23 157.12 241.99 158.88 241.99 160.64 241.99 160.64 240.23 158.88 240.23 158.88 238.48 157.12 238.48 157.12 236.72 155.37 236.72 153.61 236.72 153.61 238.48 155.37 238.48 155.37 240.23"></polygon><polygon class="cls-1" points="151.85 240.23 153.61 240.23 153.61 238.48 151.85 238.48 150.1 238.48 150.1 240.23 148.34 240.23 148.34 241.99 150.1 241.99 150.1 243.75 151.85 243.75 151.85 241.99 151.85 240.23"></polygon><rect class="cls-1" x="153.61" y="240.23" width="1.76" height="1.76"></rect><polygon class="cls-1" points="148.34 241.99 146.58 241.99 144.83 241.99 144.83 240.23 146.58 240.23 148.34 240.23 148.34 238.48 146.58 238.48 146.58 236.72 144.83 236.72 144.83 238.48 143.07 238.48 143.07 240.23 141.32 240.23 141.32 238.48 139.56 238.48 139.56 240.23 139.56 241.99 141.32 241.99 143.07 241.99 143.07 243.75 141.32 243.75 141.32 245.5 143.07 245.5 144.83 245.5 146.58 245.5 148.34 245.5 148.34 247.26 150.1 247.26 150.1 245.5 150.1 243.75 148.34 243.75 148.34 241.99"></polygon><rect class="cls-1" x="155.37" y="241.99" width="1.76" height="1.76"></rect><polygon class="cls-1" points="160.64 247.26 160.64 245.5 160.64 243.75 158.88 243.75 158.88 245.5 157.12 245.5 155.37 245.5 155.37 243.75 153.61 243.75 151.85 243.75 151.85 245.5 153.61 245.5 153.61 247.26 153.61 249.01 155.37 249.01 155.37 247.26 157.12 247.26 157.12 249.01 158.88 249.01 158.88 247.26 160.64 247.26"></polygon><rect class="cls-1" x="139.56" y="247.26" width="1.76" height="1.76"></rect><rect class="cls-1" x="143.07" y="247.26" width="1.76" height="1.76"></rect><rect class="cls-1" x="146.58" y="247.26" width="1.76" height="1.76"></rect><rect class="cls-1" x="150.1" y="247.26" width="1.76" height="1.76"></rect><rect class="cls-1" x="160.64" y="247.26" width="1.76" height="1.76"></rect><polygon class="cls-1" points="148.34 250.77 146.58 250.77 146.58 252.53 144.83 252.53 144.83 254.28 146.58 254.28 148.34 254.28 148.34 252.53 150.1 252.53 150.1 250.77 150.1 249.01 148.34 249.01 148.34 250.77"></polygon><rect class="cls-1" x="158.88" y="249.01" width="1.76" height="1.76"></rect><rect class="cls-1" x="143.07" y="250.77" width="1.76" height="1.76"></rect><polygon class="cls-1" points="155.37 252.53 155.37 250.77 153.61 250.77 151.85 250.77 151.85 252.53 153.61 252.53 155.37 252.53"></polygon><polygon class="cls-1" points="158.88 250.77 157.12 250.77 157.12 252.53 157.12 254.28 158.88 254.28 158.88 252.53 158.88 250.77"></polygon><polygon class="cls-1" points="174.69 252.53 174.69 250.77 172.93 250.77 171.17 250.77 171.17 252.53 172.93 252.53 174.69 252.53"></polygon><polygon class="cls-1" points="132.53 254.28 132.53 252.53 132.53 250.77 130.78 250.77 129.02 250.77 127.26 250.77 127.26 252.53 127.26 254.28 129.02 254.28 129.02 252.53 130.78 252.53 130.78 254.28 132.53 254.28"></polygon><polygon class="cls-1" points="139.56 254.28 141.32 254.28 141.32 252.53 139.56 252.53 137.8 252.53 137.8 254.28 139.56 254.28"></polygon><rect class="cls-1" x="150.1" y="252.53" width="1.76" height="1.76"></rect><rect class="cls-1" x="174.69" y="252.53" width="1.76" height="1.76"></rect><polygon class="cls-1" points="137.8 256.04 137.8 254.28 136.05 254.28 136.05 252.53 137.8 252.53 137.8 250.77 136.05 250.77 134.29 250.77 134.29 252.53 134.29 254.28 134.29 256.04 136.05 256.04 137.8 256.04"></polygon><polygon class="cls-1" points="171.17 254.28 171.17 252.53 169.42 252.53 167.66 252.53 165.9 252.53 164.15 252.53 162.39 252.53 160.64 252.53 160.64 254.28 158.88 254.28 158.88 256.04 160.64 256.04 160.64 257.8 162.39 257.8 162.39 256.04 162.39 254.28 164.15 254.28 164.15 256.04 165.9 256.04 165.9 254.28 167.66 254.28 169.42 254.28 169.42 256.04 171.17 256.04 172.93 256.04 174.69 256.04 174.69 254.28 172.93 254.28 171.17 254.28"></polygon><polygon class="cls-1" points="137.8 259.55 137.8 261.31 139.56 261.31 139.56 259.55 141.32 259.55 141.32 257.8 141.32 256.04 139.56 256.04 139.56 257.8 137.8 257.8 136.05 257.8 134.29 257.8 134.29 256.04 132.53 256.04 130.78 256.04 129.02 256.04 127.26 256.04 125.51 256.04 125.51 257.8 127.26 257.8 129.02 257.8 129.02 259.55 130.78 259.55 132.53 259.55 132.53 261.31 134.29 261.31 136.05 261.31 136.05 259.55 137.8 259.55"></polygon><rect class="cls-1" x="162.39" y="257.8" width="1.76" height="1.76"></rect><path class="cls-1" d="m174.69,256.04v1.75h-1.76v1.75h-1.75v-1.75h-1.75v3.52h-1.76v-5.27h-1.75v3.51h-1.75v1.76h1.75v1.75h1.75v1.75h-1.75v3.52h-1.75v1.75h-3.52v1.76h-1.75v-1.76h-7.03v3.52h1.76v3.52h1.75v-1.76h1.75v1.76h3.52v3.51h7.02v1.76h1.76v-1.76h3.51v-1.75h-3.51v-3.52h1.75v-1.75h1.75v-1.75h1.76v-1.76h-1.76v-3.51h-1.75v1.75h-1.75v3.52h-1.76v-5.27h3.52v-5.27h1.75v5.27h1.76v-3.52h1.75v-7.02h-1.76Zm-7.03,22.82h-5.27v-5.27h5.27v5.27Z"></path><rect class="cls-1" x="141.32" y="259.55" width="1.76" height="1.76"></rect><polygon class="cls-1" points="162.39 261.31 162.39 259.55 160.64 259.55 160.64 257.8 158.88 257.8 158.88 259.55 158.88 261.31 158.88 263.07 160.64 263.07 160.64 261.31 162.39 261.31"></polygon><polygon class="cls-1" points="127.26 261.31 127.26 259.55 125.51 259.55 125.51 261.31 125.51 263.07 127.26 263.07 127.26 261.31"></polygon><rect class="cls-1" x="136.05" y="261.31" width="1.76" height="1.76"></rect><rect class="cls-1" x="127.26" y="263.07" width="1.76" height="1.76"></rect><rect class="cls-1" x="137.8" y="263.07" width="1.76" height="1.76"></rect><rect class="cls-1" x="136.05" y="264.82" width="1.76" height="1.76"></rect><polygon class="cls-1" points="164.15 264.82 162.39 264.82 162.39 263.07 160.64 263.07 160.64 264.82 160.64 266.58 162.39 266.58 162.39 268.33 164.15 268.33 164.15 266.58 164.15 264.82"></polygon><polygon class="cls-1" points="139.56 268.33 141.32 268.33 141.32 270.09 143.07 270.09 143.07 268.33 143.07 266.58 143.07 264.82 143.07 263.07 141.32 263.07 141.32 264.82 141.32 266.58 139.56 266.58 137.8 266.58 137.8 268.33 139.56 268.33"></polygon><rect class="cls-1" x="158.88" y="266.58" width="1.76" height="1.76"></rect><rect class="cls-1" x="125.51" y="268.33" width="1.76" height="1.76"></rect><polygon class="cls-1" points="136.05 268.33 136.05 266.58 134.29 266.58 134.29 264.82 134.29 263.07 132.53 263.07 130.78 263.07 130.78 264.82 132.53 264.82 132.53 266.58 130.78 266.58 130.78 268.33 132.53 268.33 132.53 270.09 134.29 270.09 136.05 270.09 137.8 270.09 137.8 268.33 136.05 268.33"></polygon><rect class="cls-1" x="129.02" y="270.09" width="1.76" height="1.76"></rect><polygon class="cls-1" points="139.56 270.09 137.8 270.09 137.8 271.85 136.05 271.85 134.29 271.85 134.29 273.6 136.05 273.6 137.8 273.6 139.56 273.6 139.56 271.85 139.56 270.09"></polygon><rect class="cls-1" x="127.26" y="271.85" width="1.76" height="1.76"></rect><rect class="cls-1" x="130.78" y="271.85" width="1.76" height="1.76"></rect><polygon class="cls-1" points="141.32 273.6 139.56 273.6 139.56 275.36 141.32 275.36 143.07 275.36 143.07 273.6 141.32 273.6"></polygon><polygon class="cls-1" points="144.83 275.36 146.58 275.36 148.34 275.36 148.34 273.6 150.1 273.6 150.1 271.85 148.34 271.85 148.34 270.09 146.58 270.09 146.58 271.85 144.83 271.85 143.07 271.85 143.07 273.6 144.83 273.6 144.83 275.36"></polygon><rect class="cls-1" x="174.69" y="273.6" width="1.76" height="1.76"></rect><rect class="cls-1" x="164.15" y="275.36" width="1.76" height="1.76"></rect><polygon class="cls-1" points="172.93 277.12 174.69 277.12 174.69 275.36 172.93 275.36 171.17 275.36 171.17 277.12 172.93 277.12"></polygon><rect class="cls-1" x="155.37" y="277.12" width="1.76" height="1.76"></rect><polygon class="cls-1" points="148.34 280.63 150.1 280.63 150.1 278.87 150.1 277.12 148.34 277.12 146.58 277.12 146.58 278.87 148.34 278.87 148.34 280.63"></polygon><polygon class="cls-1" points="153.61 278.87 153.61 277.12 151.85 277.12 151.85 278.87 151.85 280.63 153.61 280.63 155.37 280.63 155.37 278.87 153.61 278.87"></polygon><rect class="cls-1" x="174.69" y="278.87" width="1.76" height="1.76"></rect><polygon class="cls-1" points="150.1 282.39 150.1 284.14 151.85 284.14 151.85 282.39 151.85 280.63 150.1 280.63 150.1 282.39"></polygon><rect class="cls-1" x="158.88" y="280.63" width="1.76" height="1.76"></rect><rect class="cls-1" x="172.93" y="280.63" width="1.76" height="1.76"></rect><polygon class="cls-1" points="157.12 282.39 157.12 280.63 155.37 280.63 155.37 282.39 155.37 284.14 157.12 284.14 158.88 284.14 158.88 282.39 157.12 282.39"></polygon><rect class="cls-1" x="165.9" y="282.39" width="1.76" height="1.76"></rect><rect class="cls-1" x="174.69" y="282.39" width="1.76" height="1.76"></rect><polygon class="cls-1" points="150.1 284.14 148.34 284.14 148.34 282.39 146.58 282.39 146.58 280.63 146.58 278.87 144.83 278.87 144.83 280.63 143.07 280.63 143.07 278.87 144.83 278.87 144.83 277.12 144.83 275.36 143.07 275.36 143.07 277.12 141.32 277.12 139.56 277.12 139.56 278.87 141.32 278.87 141.32 280.63 139.56 280.63 139.56 282.39 139.56 284.14 139.56 285.9 141.32 285.9 141.32 287.65 143.07 287.65 143.07 285.9 144.83 285.9 144.83 284.14 143.07 284.14 143.07 282.39 144.83 282.39 144.83 284.14 146.58 284.14 146.58 285.9 144.83 285.9 144.83 287.65 146.58 287.65 148.34 287.65 150.1 287.65 151.85 287.65 151.85 285.9 150.1 285.9 150.1 284.14"></polygon><rect class="cls-1" x="151.85" y="284.14" width="1.76" height="1.76"></rect><polygon class="cls-1" points="158.88 284.14 158.88 285.9 157.12 285.9 157.12 287.65 158.88 287.65 160.64 287.65 162.39 287.65 162.39 285.9 162.39 284.14 162.39 282.39 160.64 282.39 160.64 284.14 158.88 284.14"></polygon><polygon class="cls-1" points="169.42 285.9 171.17 285.9 171.17 284.14 169.42 284.14 167.66 284.14 167.66 285.9 169.42 285.9"></polygon><polygon class="cls-1" points="172.93 285.9 172.93 287.65 174.69 287.65 174.69 285.9 174.69 284.14 172.93 284.14 172.93 285.9"></polygon><rect class="cls-1" x="165.9" y="285.9" width="1.76" height="1.76"></rect><path class="cls-1" d="m150.98,255.16c-3.89,0-7.03,3.15-7.03,7.02s3.15,7.03,7.03,7.03,7.02-3.15,7.02-7.03-3.15-7.02-7.02-7.02h0Zm2.42,9.88c-.1.34-.23.63-.45.63s-.46-.08-.7-.25c-.24-.17-1.82-1.23-2.05-1.37-.19-.12-.39-.43-.1-.72.24-.24,2.03-1.98,2.19-2.13.15-.15,0-.35-.19-.2s-2.8,1.9-3.03,2.05c-.21.13-.59.21-.93.11-.35-.09-.94-.27-1.17-.35-.23-.09-.31-.16-.31-.29,0-.2.27-.33.57-.45.31-.13,5.63-2.39,6.05-2.54.3-.11.56-.15.74-.07.14.07.22.23.2.45-.08.79-.68,4.74-.81,5.13h-.01Z"></path></g><g><path class="cls-1" d="m279.75,340.61v93.61c0,26.52-21.5,48.02-48.03,48.02h-41.85v-48.48h15.21c.27,0,.53,0,.8-.02,9.92-.42,17.83-8.59,17.83-18.61v-56.27c0-10.03-7.91-18.2-17.83-18.62-.27,0-.53-.02-.8-.02h-15.21v-47.62h41.85c26.52,0,48.03,21.49,48.03,48.02h0Z"></path><rect class="cls-1" x="122.57" y="292.59" width="56.81" height="189.65"></rect><rect class="cls-1" x="189.88" y="374.64" width="16.01" height="25.54"></rect></g><g><path class="cls-1" d="m92.55,205.57l-3.93,5.88v-5.88h-1.43v8.13h1.36l3.94-5.88v5.88h1.43v-8.13h-1.37Z"></path><path class="cls-1" d="m101.31,205.57v3.35h-3.88v-3.35h-1.43v8.13h1.43v-3.58h3.88v3.58h1.43v-8.13h-1.43Z"></path><path class="cls-1" d="m109.23,212.2c-.3.27-.72.39-1.26.39-.24,0-.48-.05-.73-.14-.25-.1-.46-.27-.66-.5-.19-.23-.35-.52-.46-.89-.12-.37-.18-.82-.18-1.36v-.23c0-.51.06-.95.16-1.31.11-.35.27-.63.45-.85.19-.22.41-.38.65-.48.25-.09.5-.14.77-.14.48,0,.88.11,1.2.34.31.24.52.61.61,1.11h1.5c-.04-.45-.15-.84-.34-1.18-.18-.33-.42-.62-.7-.83-.29-.23-.63-.4-1.01-.51-.38-.1-.8-.16-1.25-.16s-.92.08-1.35.24c-.44.15-.81.4-1.14.72-.32.33-.58.74-.77,1.24-.19.51-.28,1.11-.28,1.82v.23c0,.73.09,1.36.27,1.88.19.52.44.95.76,1.29.32.34.7.59,1.13.74.43.15.89.23,1.37.23.44,0,.84-.05,1.22-.15.38-.09.71-.26,1.01-.47.29-.22.53-.49.72-.82.18-.34.3-.75.35-1.23h-1.5c-.06.45-.25.81-.55,1.06v-.04Z"></path><path class="cls-1" d="m111.81,205.57v1.21h2.72v6.92h1.41v-6.92h2.72v-1.21h-6.85Z"></path><path class="cls-1" d="m125.31,205.57l-3.94,5.88v-5.88h-1.42v8.13h1.36l3.94-5.88v5.88h1.42v-8.13h-1.36Z"></path><path class="cls-1" d="m127.95,205.57v1.21h2.72v6.92h1.41v-6.92h2.72v-1.21h-6.85Z"></path><path class="cls-1" d="m141.66,205.57l-2.09,4.82-2.54-4.82h-1.48l3.32,6.18c-.07.16-.14.3-.2.42-.07.1-.14.2-.23.27-.08.07-.18.1-.29.13-.11.02-.26.03-.42.03h-.24c-.08,0-.14,0-.21-.02v1.22c.07,0,.13.02.22.03h.25c.33,0,.62-.03.85-.1.25-.07.46-.17.65-.32.19-.15.36-.34.51-.58s.3-.51.45-.83l2.88-6.42h-1.43Z"></path><path class="cls-1" d="m143.82,205.57v1.21h2.72v6.92h1.41v-6.92h2.72v-1.21h-6.85Z"></path><path class="cls-1" d="m161.24,212.48v-6.92h-1.42v6.92h-3.65v-6.92h-1.43v8.13h6.24v1.51h1.31v-2.72h-1.05Z"></path><path class="cls-1" d="m169.02,205.57l-3.93,5.88v-5.88h-1.43v8.13h1.37l3.93-5.88v5.88h1.43v-8.13h-1.37Z"></path><path class="cls-1" d="m180.85,208.05c-.17-.41-.43-.77-.76-1.06-.33-.3-.74-.54-1.21-.71s-1.01-.26-1.61-.26v-.81h-1.4v.81c-.6,0-1.13.09-1.61.26-.47.17-.87.41-1.2.71-.33.29-.58.65-.76,1.06-.18.42-.27.86-.27,1.35v.24c0,.54.09,1.03.27,1.48s.43.82.76,1.15c.33.31.73.56,1.2.73.48.17,1.01.26,1.61.26v.81h1.4v-.81c.6,0,1.14-.09,1.61-.26.47-.17.88-.42,1.21-.73.33-.32.59-.7.76-1.15.18-.45.27-.94.27-1.48v-.24c0-.48-.09-.93-.27-1.35Zm-4.98,3.96c-.38,0-.71-.05-1.01-.15-.29-.1-.53-.27-.73-.46-.2-.2-.35-.45-.45-.75-.1-.29-.15-.63-.15-1.01v-.24c0-.32.05-.62.15-.88.09-.26.25-.48.45-.67.21-.19.45-.34.74-.44.29-.1.63-.15,1-.15v4.76h0Zm3.76-2.39c0,.38-.05.72-.15,1.01-.1.3-.26.55-.45.75-.2.2-.45.36-.74.46s-.63.15-1.01.15v-4.76c.38,0,.72.05,1,.15.29.09.54.25.74.44.2.19.36.42.46.67.1.27.15.56.15.88v.24h0Z"></path><path class="cls-1" d="m188.7,207.1c-.13-.32-.32-.59-.59-.82-.27-.23-.6-.4-1-.52-.41-.12-.88-.19-1.42-.19h-2.96v8.13h1.42v-2.95h1.54c.54,0,1.01-.07,1.42-.19.4-.12.73-.3,1-.53s.45-.5.59-.81c.12-.32.19-.67.19-1.06s-.07-.74-.19-1.05h0Zm-1.66,2.07c-.27.24-.77.36-1.46.36h-1.42v-2.76h1.42c.69,0,1.18.11,1.46.36s.42.59.42,1.01-.13.78-.42,1.02h0Z"></path><path class="cls-1" d="m197.13,207.64c-.2-.5-.47-.92-.81-1.24-.34-.33-.74-.58-1.18-.73-.45-.15-.92-.23-1.4-.23s-.96.08-1.4.23c-.45.15-.85.4-1.18.73-.34.32-.62.74-.82,1.24-.21.51-.3,1.11-.3,1.82v.23c0,.74.09,1.36.3,1.89.21.51.48.94.82,1.27.33.34.73.58,1.18.74.45.16.91.24,1.4.24s.96-.08,1.4-.24c.45-.16.84-.4,1.18-.74.34-.33.62-.76.81-1.27.21-.52.31-1.15.31-1.89v-.23c0-.71-.1-1.31-.31-1.82Zm-1.18,2.05c0,.53-.07.99-.19,1.36-.12.38-.28.67-.48.9-.21.24-.44.4-.71.5-.27.09-.55.14-.83.14s-.57-.05-.83-.14c-.27-.1-.51-.27-.71-.5-.2-.23-.37-.52-.49-.9-.12-.37-.18-.82-.18-1.36v-.23c0-.51.06-.95.18-1.3s.29-.63.49-.86c.2-.22.44-.38.71-.48.27-.09.55-.14.83-.14s.56.05.83.14c.27.1.5.27.71.48.2.23.36.51.48.86s.19.79.19,1.3v.23Z"></path><path class="cls-1" d="m205.06,210.1c-.27-.32-.65-.54-1.14-.64.35-.13.64-.35.87-.64.22-.3.33-.66.33-1.08,0-.32-.06-.63-.16-.89-.1-.27-.27-.5-.5-.68-.23-.19-.52-.33-.86-.44-.34-.1-.76-.16-1.25-.16h-3.22v8.13h3.42c.52,0,.97-.06,1.34-.17s.67-.27.91-.47c.23-.2.4-.44.51-.72s.17-.6.17-.94c0-.53-.14-.96-.42-1.29h0Zm-4.51-3.37h1.64c.29,0,.54.03.73.08s.34.12.46.22c.11.09.2.22.25.35.05.14.07.3.07.46,0,.17-.02.32-.07.45-.05.14-.13.27-.25.36-.12.1-.27.18-.47.24-.19.05-.44.08-.72.08h-1.64v-2.24h0Zm3.42,5.07c-.06.16-.15.28-.27.39-.13.1-.29.19-.5.25-.22.05-.47.08-.8.08h-1.85v-2.47h1.83c.31,0,.58.03.8.09s.39.14.52.25c.12.1.22.24.27.39s.08.33.08.52c0,.2-.03.37-.08.52v-.02Z"></path><path class="cls-1" d="m213.66,207.64c-.2-.5-.47-.92-.81-1.24-.34-.33-.74-.58-1.18-.73-.45-.15-.92-.23-1.4-.23s-.96.08-1.4.23c-.45.15-.84.4-1.18.73-.34.32-.62.74-.82,1.24-.21.51-.3,1.11-.3,1.82v.23c0,.74.09,1.36.3,1.89.21.51.48.94.82,1.27.34.34.73.58,1.18.74.45.16.91.24,1.4.24s.96-.08,1.4-.24c.45-.16.84-.4,1.18-.74.34-.33.62-.76.81-1.27.21-.52.31-1.15.31-1.89v-.23c0-.71-.1-1.31-.31-1.82Zm-1.18,2.05c0,.53-.07.99-.19,1.36-.12.38-.28.67-.48.9-.2.24-.44.4-.71.5-.27.09-.55.14-.83.14s-.57-.05-.83-.14c-.27-.1-.51-.27-.71-.5-.2-.23-.37-.52-.49-.9-.12-.37-.18-.82-.18-1.36v-.23c0-.51.06-.95.18-1.3s.29-.63.49-.86c.2-.22.44-.38.71-.48.27-.09.55-.14.83-.14s.56.05.83.14c.27.1.51.27.71.48.2.23.36.51.48.86.12.35.19.79.19,1.3v.23Z"></path><path class="cls-1" d="m221.03,205.57l-3.94,5.88v-5.88h-1.42v8.13h1.36l3.94-5.88v5.88h1.42v-8.13h-1.36Zm-1.14-2.36c0,.34-.08.59-.21.72-.14.14-.36.21-.65.21-.27,0-.49-.07-.63-.21-.14-.13-.21-.38-.21-.72h-1.25c0,.29.05.56.13.79.09.23.21.42.38.57.17.15.39.27.65.34.27.08.57.11.93.11s.66-.04.93-.11c.27-.08.48-.19.65-.34.17-.15.29-.34.38-.57.09-.23.13-.49.13-.79h-1.23Z"></path><path class="cls-1" d="m233.32,207.61c-.19-.51-.45-.93-.78-1.24-.32-.32-.7-.56-1.13-.71-.42-.14-.87-.22-1.36-.22-.45,0-.86.06-1.25.16-.38.11-.72.28-1,.51-.29.22-.53.5-.71.83s-.29.72-.34,1.18h1.5c.05-.25.12-.46.23-.64.11-.19.25-.33.4-.45s.33-.21.53-.27c.21-.06.43-.09.65-.09.25,0,.49.03.72.1.24.08.45.2.63.39.19.18.34.42.46.72.11.29.19.66.21,1.11h-2.97v1.16h2.99c-.04.47-.11.86-.25,1.18-.12.32-.28.57-.47.76-.2.18-.41.31-.63.39s-.45.11-.68.11c-.53,0-.96-.12-1.26-.39-.3-.26-.49-.61-.55-1.06h-1.5c.06.48.17.89.36,1.23.18.33.43.61.72.82s.63.38,1,.47c.38.1.79.15,1.22.15.49,0,.95-.07,1.37-.22.44-.14.81-.39,1.13-.72s.58-.76.76-1.28c.19-.52.28-1.17.28-1.91v-.23c0-.72-.09-1.34-.28-1.85h0Z"></path><path class="cls-1" d="m238.69,209.42l3.41-3.86h-1.63l-2.95,3.4h-.81v-3.4h-1.42v8.13h1.42v-3.64h.81l2.95,3.64h1.74l-3.53-4.27h.01Z"></path><path class="cls-1" d="m250.07,207.64c-.21-.5-.47-.92-.81-1.24-.34-.33-.74-.58-1.18-.73-.45-.15-.92-.23-1.41-.23s-.95.08-1.4.23c-.45.15-.84.4-1.18.73-.34.32-.62.74-.81,1.24-.21.51-.31,1.11-.31,1.82v.23c0,.74.1,1.36.31,1.89.2.51.47.94.81,1.27.34.34.74.58,1.18.74.45.16.92.24,1.4.24s.96-.08,1.41-.24.84-.4,1.18-.74c.34-.33.61-.76.81-1.27.21-.52.31-1.15.31-1.89v-.23c0-.71-.1-1.31-.31-1.82Zm-1.19,2.05c0,.53-.06.99-.18,1.36-.12.38-.28.67-.49.9-.2.24-.44.4-.7.5-.27.09-.55.14-.84.14s-.56-.05-.83-.14c-.27-.1-.5-.27-.71-.5-.2-.23-.36-.52-.48-.9-.12-.37-.19-.82-.19-1.36v-.23c0-.51.07-.95.19-1.3s.28-.63.48-.86c.21-.22.45-.38.71-.48.27-.09.55-.14.83-.14s.57.05.84.14c.27.1.5.27.7.48.21.23.37.51.49.86s.18.79.18,1.3v.23Z"></path><path class="cls-1" d="m257.37,205.57v3.35h-3.88v-3.35h-1.43v8.13h1.43v-3.58h3.88v3.58h1.43v-8.13h-1.43Z"></path><path class="cls-1" d="m267.6,207.64c-.2-.5-.47-.92-.81-1.24-.34-.33-.74-.58-1.18-.73-.45-.15-.92-.23-1.4-.23s-.96.08-1.4.23c-.45.15-.85.4-1.18.73-.34.32-.62.74-.82,1.24-.21.51-.3,1.11-.3,1.82v.23c0,.74.09,1.36.3,1.89.21.51.48.94.82,1.27.33.34.73.58,1.18.74.45.16.91.24,1.4.24s.96-.08,1.4-.24c.45-.16.84-.4,1.18-.74.34-.33.62-.76.81-1.27.21-.52.31-1.15.31-1.89v-.23c0-.71-.1-1.31-.31-1.82Zm-1.18,2.05c0,.53-.07.99-.19,1.36-.12.38-.28.67-.48.9-.2.24-.44.4-.71.5-.27.09-.55.14-.83.14s-.57-.05-.83-.14c-.27-.1-.51-.27-.71-.5-.2-.23-.37-.52-.49-.9-.12-.37-.18-.82-.18-1.36v-.23c0-.51.06-.95.18-1.3s.29-.63.49-.86c.2-.22.44-.38.71-.48.27-.09.55-.14.83-.14s.56.05.83.14c.27.1.51.27.71.48.2.23.36.51.48.86s.19.79.19,1.3v.23Z"></path><path class="cls-1" d="m276.18,205.57l-2.55,4.82-2.56-4.82h-1.47v8.13h1.42v-5.66l2.11,3.97h.93l2.11-3.97v5.66h1.43v-8.13h-1.43.01Z"></path><path class="cls-1" d="m285.07,205.57l-3.94,5.88v-5.88h-1.42v8.13h1.36l3.94-5.88v5.88h1.42v-8.13h-1.36Z"></path><path class="cls-1" d="m291.93,209.42l3.41-3.86h-1.62l-2.95,3.4h-.81v-3.4h-1.43v8.13h1.43v-3.64h.81l2.95,3.64h1.74l-3.53-4.27Z"></path><path class="cls-1" d="m302.16,205.57l-3.94,5.88v-5.88h-1.43v8.13h1.37l3.94-5.88v5.88h1.42v-8.13h-1.36Z"></path><path class="cls-1" d="m313.77,205.57l-3.93,5.88v-5.88h-1.43v8.13h1.36l3.94-5.88v5.88h1.43v-8.13h-1.37Z"></path><path class="cls-1" d="m59.8,219.5v1.2h2.72v6.92h1.42v-6.92h2.71v-1.2h-6.85Z"></path><path class="cls-1" d="m73.39,220.67v-1.17h-5.46v8.12h5.46v-1.17h-4.03v-2.44h3.68v-1.14h-3.68v-2.21h4.03Z"></path><path class="cls-1" d="m78.88,223.43l2.66-3.92h-1.53l-2,2.91-1.97-2.91h-1.58l2.68,3.94-2.8,4.18h1.55l2.08-3.17,2.08,3.17h1.6l-2.79-4.2h.02Z"></path><path class="cls-1" d="m88.31,219.5v3.34h-3.89v-3.34h-1.42v8.12h1.42v-3.57h3.89v3.57h1.42v-8.12h-1.42Z"></path><path class="cls-1" d="m98.55,221.58c-.21-.5-.48-.92-.82-1.25-.34-.33-.73-.57-1.18-.72-.45-.16-.91-.24-1.4-.24s-.96.08-1.4.24c-.45.15-.84.39-1.18.72s-.62.75-.82,1.25c-.2.5-.3,1.11-.3,1.81v.24c0,.73.1,1.36.3,1.88.21.52.48.95.82,1.28s.73.58,1.18.74c.45.15.92.24,1.4.24s.96-.09,1.4-.24c.45-.16.84-.41,1.18-.74s.62-.76.82-1.28c.2-.52.3-1.15.3-1.88v-.24c0-.7-.1-1.31-.3-1.81Zm-1.19,2.05c0,.53-.06.99-.18,1.36-.13.37-.29.67-.49.9-.2.23-.44.39-.71.49s-.55.15-.83.15-.56-.05-.83-.15c-.27-.1-.51-.27-.71-.49-.2-.23-.36-.53-.48-.9s-.19-.82-.19-1.36v-.24c0-.51.07-.94.19-1.3.12-.35.28-.63.48-.85s.44-.38.71-.48c.27-.1.55-.15.83-.15s.57.05.83.15c.27.1.51.27.71.48.2.22.36.5.49.85.12.36.18.79.18,1.3v.24Z"></path><path class="cls-1" d="m101.12,219.5v2.08c0,1.06-.02,1.91-.06,2.55-.04.63-.1,1.12-.2,1.45-.09.34-.21.56-.36.66-.14.1-.32.16-.54.16h-.1s-.06,0-.08-.02v1.33c.07.02.13.03.21.03h.2c.38,0,.71-.08,1-.22.28-.14.52-.43.72-.85.19-.44.34-1.03.44-1.81s.15-1.79.15-3.05v-1.12h2.88v6.92h1.43v-8.12h-5.7,0Z"></path><path class="cls-1" d="m115.61,221.58c-.21-.5-.47-.92-.81-1.25s-.74-.57-1.18-.72c-.45-.16-.92-.24-1.41-.24s-.95.08-1.4.24c-.45.15-.84.39-1.18.72s-.62.75-.81,1.25c-.21.5-.31,1.11-.31,1.81v.24c0,.73.1,1.36.31,1.88.2.52.47.95.81,1.28s.74.58,1.18.74c.45.15.92.24,1.4.24s.96-.09,1.41-.24c.45-.16.84-.41,1.18-.74s.61-.76.81-1.28c.21-.52.31-1.15.31-1.88v-.24c0-.7-.1-1.31-.31-1.81Zm-1.18,2.05c0,.53-.07.99-.19,1.36s-.28.67-.49.9c-.2.23-.44.39-.7.49-.27.1-.55.15-.84.15s-.56-.05-.83-.15c-.27-.1-.5-.27-.7-.49-.21-.23-.37-.53-.49-.9s-.19-.82-.19-1.36v-.24c0-.51.07-.94.19-1.3.12-.35.28-.63.49-.85.2-.22.44-.38.7-.48.27-.1.55-.15.83-.15s.57.05.84.15c.27.1.5.27.7.48.21.22.37.5.49.85.12.36.19.79.19,1.3v.24Z"></path><path class="cls-1" d="m117.6,219.5v8.12h1.43v-6.92h3.8v-1.2h-5.23Z"></path><path class="cls-1" d="m129.48,219.5l-3.94,5.88v-5.88h-1.42v8.12h1.36l3.94-5.88v5.88h1.42v-8.12h-1.36Z"></path><path class="cls-1" d="m137.26,219.5v3.47c-.18.11-.41.23-.69.32-.28.1-.64.15-1.08.15-.53,0-.92-.11-1.17-.36s-.36-.64-.36-1.2v-2.38h-1.43v2.49c0,.94.22,1.62.64,2.05.43.43,1.11.63,2.03.63.46,0,.87-.05,1.22-.15.35-.1.63-.23.83-.36v3.46h1.42v-8.12h-1.42,0Z"></path><path class="cls-1" d="m146.23,220.67v-1.17h-5.46v8.12h5.46v-1.17h-4.03v-2.44h3.68v-1.14h-3.68v-2.21h4.03Z"></path><path class="cls-1" d="m152.25,226.14c-.3.26-.72.39-1.26.39-.24,0-.48-.05-.73-.15-.25-.1-.46-.27-.66-.49-.19-.23-.35-.53-.46-.89-.12-.37-.18-.82-.18-1.36v-.24c0-.51.06-.95.16-1.3.11-.36.27-.64.45-.86.19-.22.41-.37.65-.47.25-.1.5-.15.77-.15.48,0,.88.11,1.2.35.31.23.52.6.62,1.1h1.5c-.05-.45-.16-.83-.35-1.18-.18-.33-.42-.61-.7-.83-.29-.23-.63-.39-1.01-.5-.38-.11-.8-.17-1.25-.17s-.92.08-1.35.24c-.44.16-.81.41-1.14.73-.32.32-.58.74-.77,1.24s-.28,1.11-.28,1.81v.24c0,.72.09,1.35.27,1.88.19.52.44.95.76,1.29.32.33.7.58,1.13.73.43.16.89.24,1.37.24.44,0,.84-.05,1.22-.15.38-.1.72-.26,1.01-.47s.53-.49.72-.83c.18-.33.3-.75.36-1.22h-1.5c-.07.45-.25.81-.56,1.06v-.04Z"></path><path class="cls-1" d="m159.27,223.35l3.41-3.85h-1.62l-2.96,3.4h-.81v-3.4h-1.43v8.12h1.43v-3.63h.81l2.96,3.63h1.74l-3.53-4.27h0Z"></path><path class="cls-1" d="m170.66,221.58c-.21-.5-.48-.92-.82-1.25s-.73-.57-1.18-.72c-.45-.16-.92-.24-1.4-.24s-.96.08-1.4.24c-.45.15-.84.39-1.18.72s-.62.75-.82,1.25-.3,1.11-.3,1.81v.24c0,.73.1,1.36.3,1.88.21.52.48.95.82,1.28s.73.58,1.18.74c.45.15.91.24,1.4.24s.96-.09,1.4-.24c.45-.16.84-.41,1.18-.74s.62-.76.82-1.28.3-1.15.3-1.88v-.24c0-.7-.1-1.31-.3-1.81Zm-1.19,2.05c0,.53-.07.99-.19,1.36s-.28.67-.48.9-.44.39-.71.49-.55.15-.83.15-.57-.05-.83-.15c-.27-.1-.51-.27-.71-.49s-.37-.53-.49-.9-.18-.82-.18-1.36v-.24c0-.51.06-.94.18-1.3.12-.35.29-.63.49-.85s.44-.38.71-.48c.27-.1.55-.15.83-.15s.57.05.83.15c.27.1.51.27.71.48s.36.5.48.85c.12.36.19.79.19,1.3v.24Z"></path><path class="cls-1" d="m172.65,219.5v8.12h1.42v-6.92h3.8v-1.2h-5.22Z"></path><path class="cls-1" d="m185.67,221.58c-.21-.5-.48-.92-.81-1.25-.34-.33-.74-.57-1.18-.72-.45-.16-.92-.24-1.41-.24s-.96.08-1.4.24c-.45.15-.84.39-1.18.72s-.62.75-.81,1.25c-.21.5-.31,1.11-.31,1.81v.24c0,.73.1,1.36.31,1.88.2.52.47.95.81,1.28s.74.58,1.18.74c.45.15.92.24,1.4.24s.96-.09,1.41-.24c.45-.16.84-.41,1.18-.74.33-.33.61-.76.81-1.28.21-.52.3-1.15.3-1.88v-.24c0-.7-.09-1.31-.3-1.81Zm-1.19,2.05c0,.53-.06.99-.18,1.36s-.28.67-.49.9c-.2.23-.44.39-.7.49-.27.1-.56.15-.84.15s-.56-.05-.83-.15c-.27-.1-.5-.27-.71-.49-.2-.23-.36-.53-.48-.9s-.19-.82-.19-1.36v-.24c0-.51.07-.94.19-1.3.12-.35.28-.63.48-.85.21-.22.44-.38.71-.48.27-.1.55-.15.83-.15s.57.05.84.15c.27.1.5.27.7.48.21.22.37.5.49.85.12.36.18.79.18,1.3v.24Z"></path><path class="cls-1" d="m190.45,219.5v8.12h1.43v-6.92h3.76v6.92h1.43v-8.12h-6.62Z"></path><path class="cls-1" d="m205.13,221.03c-.13-.31-.33-.59-.59-.82-.27-.23-.6-.41-1-.53s-.87-.18-1.41-.18h-2.97v8.12h1.43v-2.95h1.54c.54,0,1.01-.06,1.41-.18.41-.13.74-.3,1-.53s.45-.5.59-.82c.12-.31.19-.66.19-1.05s-.07-.74-.19-1.06Zm-1.66,2.08c-.27.25-.77.37-1.46.37h-1.42v-2.77h1.42c.69,0,1.18.12,1.46.37.27.24.42.58.42,1.01s-.14.77-.42,1.01h0Z"></path><path class="cls-1" d="m212.28,220.67v-1.17h-5.46v8.12h5.46v-1.17h-4.03v-2.44h3.68v-1.14h-3.68v-2.21h4.03Z"></path><path class="cls-1" d="m220.23,226.42v-6.92h-5.52v1.73c0,.46,0,.93-.03,1.42-.02.48-.06.97-.1,1.43-.06.46-.12.9-.21,1.3-.09.41-.2.76-.33,1.03h-.89v2.72h1.3v-1.52h5.41v1.52h1.3v-2.72h-.93Zm-1.42.01h-3.33c.21-.6.36-1.3.46-2.09.09-.81.14-1.75.14-2.85v-.77h2.72v5.71h0Z"></path><path class="cls-1" d="m222.54,219.5v8.12h1.43v-6.92h3.76v6.92h1.43v-8.12h-6.62Z"></path><path class="cls-1" d="m237.22,221.03c-.13-.31-.33-.59-.59-.82-.27-.23-.6-.41-1-.53s-.87-.18-1.41-.18h-2.97v8.12h1.43v-2.95h1.54c.54,0,1.01-.06,1.41-.18.41-.13.74-.3,1-.53s.45-.5.59-.82c.12-.31.19-.66.19-1.05s-.07-.74-.19-1.06Zm-1.66,2.08c-.27.25-.77.37-1.46.37h-1.42v-2.77h1.42c.69,0,1.18.12,1.46.37.27.24.42.58.42,1.01s-.14.77-.42,1.01h0Z"></path><path class="cls-1" d="m244.28,219.5l-3.93,5.88v-5.88h-1.43v8.12h1.37l3.93-5.88v5.88h1.43v-8.12h-1.37Z"></path><path class="cls-1" d="m253.05,219.5v3.34h-3.88v-3.34h-1.43v8.12h1.43v-3.57h3.88v3.57h1.43v-8.12h-1.43Z"></path><path class="cls-1" d="m261.94,219.5l-3.94,5.88v-5.88h-1.42v8.12h1.36l3.94-5.88v5.88h1.42v-8.12h-1.36Z"></path><path class="cls-1" d="m271.98,219.5l-2.56,4.81-2.55-4.81h-1.48v8.12h1.43v-5.65l2.11,3.97h.93l2.11-3.97v5.65h1.42v-8.12h-1.42.01Z"></path><path class="cls-1" d="m279.13,219.5h-1.43l-3.05,8.12h1.41l.7-1.87h3.2l.69,1.87h1.54l-3.06-8.12h0Zm-1.93,5.1l1.17-3.33,1.16,3.33h-2.33Z"></path><path class="cls-1" d="m281.72,219.5v1.2h2.72v6.92h1.41v-6.92h2.72v-1.2h-6.85Z"></path><path class="cls-1" d="m295.31,220.67v-1.17h-5.46v8.12h5.46v-1.17h-4.04v-2.44h3.69v-1.14h-3.69v-2.21h4.04Z"></path><path class="cls-1" d="m297.6,219.5v2.08c0,1.06-.02,1.91-.06,2.55s-.1,1.12-.2,1.45c-.09.34-.21.56-.36.66-.14.1-.32.16-.54.16h-.1s-.06,0-.08-.02v1.33c.07.02.13.03.21.03h.2c.38,0,.71-.08,1-.22.28-.14.52-.43.72-.85.19-.44.34-1.03.44-1.81s.15-1.79.15-3.05v-1.12h2.88v6.92h1.43v-8.12h-5.7.01Z"></path><path class="cls-1" d="m311.34,224.06c-.12-.32-.32-.59-.58-.81-.27-.22-.6-.39-1-.51s-.87-.18-1.41-.18h-1.54v-3.06h-1.43v8.12h2.97c.54,0,1.01-.06,1.41-.18.41-.11.74-.28,1-.51.26-.22.45-.48.58-.8.13-.31.2-.66.2-1.04s-.07-.72-.2-1.03h0Zm-1.68,2.01c-.27.23-.76.35-1.44.35h-1.41v-2.64h1.41c.68,0,1.17.11,1.44.35.28.24.43.56.43.97s-.14.74-.43.98h0Z"></path><path class="cls-1" d="m317.47,226.14c-.3.26-.72.39-1.26.39-.24,0-.48-.05-.73-.15-.25-.1-.46-.27-.66-.49-.19-.23-.35-.53-.46-.89-.12-.37-.18-.82-.18-1.36v-.24c0-.51.06-.95.16-1.3.11-.36.27-.64.45-.86s.41-.37.65-.47c.25-.1.5-.15.77-.15.48,0,.88.11,1.2.35.31.23.52.6.61,1.1h1.51c-.05-.45-.16-.83-.35-1.18-.18-.33-.42-.61-.7-.83-.29-.23-.63-.39-1.01-.5s-.8-.17-1.25-.17-.92.08-1.35.24c-.44.16-.81.41-1.14.73-.32.32-.58.74-.77,1.24s-.28,1.11-.28,1.81v.24c0,.72.09,1.35.27,1.88.19.52.44.95.76,1.29.32.33.7.58,1.13.73.43.16.89.24,1.37.24.44,0,.84-.05,1.22-.15.38-.1.71-.26,1.01-.47.29-.22.53-.49.72-.83.18-.33.3-.75.36-1.22h-1.51c-.06.45-.24.81-.55,1.06v-.04Z"></path><path class="cls-1" d="m320.05,219.5v1.2h2.72v6.92h1.41v-6.92h2.72v-1.2h-6.85Z"></path><path class="cls-1" d="m334.12,224.04c-.28-.33-.66-.54-1.15-.65.35-.13.64-.34.87-.64.22-.29.33-.65.33-1.07,0-.33-.06-.63-.16-.9-.1-.27-.27-.49-.5-.68-.23-.19-.52-.33-.86-.44s-.76-.15-1.25-.15h-3.22v8.12h3.42c.52,0,.97-.06,1.34-.16.37-.11.67-.27.91-.47.23-.2.4-.45.51-.73.11-.27.17-.59.17-.93,0-.54-.14-.97-.41-1.29h0Zm-4.52-3.38h1.64c.29,0,.54.03.73.08.19.06.34.12.46.23.11.09.2.21.25.35s.07.29.07.46c0,.16-.02.31-.07.45-.05.13-.13.26-.25.36-.12.09-.27.18-.47.23-.19.06-.44.09-.72.09h-1.64v-2.25Zm3.42,5.08c-.06.15-.15.28-.27.39-.13.1-.29.18-.5.24-.22.06-.47.09-.8.09h-1.85v-2.47h1.83c.31,0,.58.03.8.09s.39.13.52.25c.12.1.22.23.27.39.05.15.08.32.08.52s-.03.37-.08.52v-.02Z"></path><path class="cls-1" d="m339.5,219.5h-1.42l-3.06,8.12h1.42l.69-1.87h3.21l.69,1.87h1.54l-3.07-8.12Zm-1.92,5.1l1.17-3.33,1.16,3.33h-2.33Z"></path></g></g></g></g></svg> 