<svg xmlns="http://www.w3.org/2000/svg" width="1094" height="788" viewBox="0 0 1094 788">
<g>
<path d="M 119.74 411.06 C117.96,413.21 116.28,414.94 116.00,414.90 C114.17,414.69 97.00,402.27 97.00,401.16 C97.00,400.50 142.17,331.88 145.32,327.76 C146.05,326.81 153.14,316.09 161.08,303.96 C175.59,281.76 189.43,262.71 215.75,228.70 C232.28,207.35 248.79,190.76 267.41,176.80 C274.06,171.81 280.62,166.71 282.00,165.46 C284.82,162.90 309.34,150.45 318.50,146.92 C321.80,145.65 329.82,142.44 336.31,139.77 C349.16,134.51 355.23,133.24 390.50,128.46 C401.50,126.96 411.17,125.38 412.00,124.94 C413.21,124.29 413.43,122.25 413.15,114.07 C412.93,107.57 413.17,104.00 413.84,104.00 C414.41,104.00 415.13,105.91 415.43,108.25 C415.73,110.59 416.66,117.45 417.48,123.50 C418.31,129.55 419.66,140.12 420.49,147.00 C421.32,153.88 422.47,163.32 423.05,168.00 C423.62,172.68 425.20,185.73 426.54,197.00 C427.89,208.27 429.25,219.02 429.57,220.89 L 430.14 224.27 L 438.32 223.71 C453.28,222.67 477.41,219.96 484.50,218.53 C488.35,217.75 499.83,216.37 510.00,215.46 C520.17,214.54 539.75,212.31 553.50,210.50 C567.25,208.69 578.84,207.53 579.26,207.92 C579.69,208.31 579.91,222.33 579.76,239.06 L 579.50 269.50 L 565.00 271.14 C557.03,272.04 544.88,273.49 538.00,274.35 C531.12,275.22 514.03,277.30 500.00,278.98 C485.98,280.65 469.55,282.67 463.50,283.46 C442.43,286.20 431.04,287.37 430.51,286.85 C429.93,286.26 429.52,283.33 425.11,248.00 C423.43,234.52 421.59,220.57 421.03,217.00 C420.47,213.43 419.56,206.68 419.00,202.00 C416.69,182.69 415.26,172.92 414.66,172.32 C413.98,171.64 384.57,175.20 372.00,177.49 C367.88,178.23 361.12,179.38 357.00,180.03 C344.73,181.96 308.56,196.61 290.00,207.16 C284.51,210.28 264.62,224.67 258.00,230.31 C256.08,231.94 248.97,238.66 242.21,245.22 C230.33,256.74 220.42,268.90 190.21,309.00 C174.15,330.31 171.38,334.30 144.46,374.83 C132.65,392.61 121.53,408.91 119.74,411.06 ZM 496.54 701.41 C477.86,728.68 462.34,750.98 462.04,750.96 C461.74,750.94 454.98,746.38 447.00,740.82 C439.02,735.26 428.45,727.94 423.50,724.55 C418.55,721.15 405.79,712.33 395.15,704.94 C384.51,697.55 372.59,689.30 368.65,686.62 C362.11,682.16 357.84,679.18 335.06,663.20 C330.90,660.28 323.72,655.33 319.11,652.20 C314.49,649.06 308.79,645.15 306.44,643.50 C304.09,641.85 298.86,638.26 294.83,635.52 C290.80,632.79 285.65,629.08 283.40,627.27 C281.14,625.47 278.96,624.00 278.56,624.00 C278.16,624.00 275.28,622.05 272.17,619.67 C267.41,616.04 247.15,601.88 241.86,598.50 C241.00,597.95 235.16,593.99 228.90,589.70 C222.63,585.41 214.12,579.60 210.00,576.78 C205.88,573.97 173.70,551.78 138.50,527.48 C103.30,503.18 70.90,480.85 66.50,477.86 C52.47,468.32 49.07,466.13 48.25,463.21 C47.99,462.27 47.99,461.26 48.00,459.91 C48.00,459.71 48.00,459.50 48.00,459.29 L 48.00 453.77 L 40.51 454.47 C33.21,455.15 32.89,455.08 27.70,451.83 C16.18,444.62 16.41,445.01 15.50,430.94 C14.64,417.68 14.71,411.69 15.81,403.19 L 16.50 397.89 L 22.00 402.05 C30.27,408.32 33.16,409.29 41.17,408.48 C41.54,408.45 41.89,408.41 42.22,408.38 C45.32,408.06 46.84,407.90 47.56,408.59 C48.25,409.25 48.19,410.69 48.07,413.52 C48.06,413.84 48.04,414.17 48.03,414.52 C47.84,419.59 48.17,419.91 68.50,433.75 C85.53,445.34 110.01,462.26 124.00,472.10 C128.68,475.39 135.43,480.05 139.00,482.45 C142.57,484.86 148.43,488.92 152.00,491.48 C155.57,494.04 165.02,500.59 173.00,506.03 C190.42,517.91 223.78,540.97 232.99,547.50 C238.27,551.24 247.48,557.60 260.50,566.48 C267.65,571.36 278.00,578.49 283.50,582.33 C289.00,586.17 298.45,592.70 304.50,596.84 C310.55,600.99 317.30,605.65 319.50,607.22 C324.02,610.43 323.41,610.00 365.50,638.97 C382.55,650.70 397.43,661.13 398.56,662.15 C399.70,663.17 400.96,664.00 401.36,664.00 C401.76,664.00 404.43,665.72 407.29,667.81 C410.16,669.91 417.67,675.17 424.00,679.51 C430.33,683.84 437.75,688.97 440.50,690.90 C456.89,702.41 461.21,705.13 462.40,704.68 C463.13,704.40 468.53,697.04 474.41,688.33 C480.28,679.62 488.50,667.55 492.67,661.50 C496.84,655.45 504.10,644.88 508.80,638.00 C513.50,631.12 519.37,622.58 521.84,619.00 C524.31,615.42 527.64,610.58 529.24,608.24 C530.85,605.90 532.63,604.27 533.21,604.63 C534.78,605.60 533.42,647.78 531.76,650.08 C531.07,651.03 515.22,674.13 496.54,701.41 ZM 930.45 279.25 C929.70,280.16 929.20,280.84 928.63,280.91 C927.32,281.05 925.65,277.91 919.73,266.81 L 919.03 265.50 C913.51,255.14 908.62,246.38 906.35,242.77 C905.06,240.72 904.00,238.84 904.00,238.59 C904.00,237.93 889.75,211.59 889.07,211.00 C888.76,210.73 887.34,208.25 885.91,205.50 C873.45,181.43 866.68,169.96 864.67,169.52 C863.48,169.26 851.70,168.35 838.50,167.49 C789.62,164.34 769.15,162.99 755.50,162.03 C733.77,160.49 712.65,159.10 711.00,159.09 C708.59,159.08 666.64,156.12 653.20,155.01 C637.86,153.75 620.12,153.72 609.00,154.94 C583.15,157.77 575.87,158.27 574.88,157.28 C574.32,156.72 572.97,149.34 571.89,140.88 C568.86,117.23 568.32,110.92 569.26,110.34 C569.73,110.05 576.51,109.18 584.31,108.42 C592.11,107.65 604.80,106.35 612.50,105.53 C626.99,103.99 637.17,104.40 698.50,108.96 C706.20,109.54 716.33,110.20 721.00,110.45 C733.38,111.09 826.05,117.34 848.80,119.07 C855.57,119.58 862.17,120.00 863.46,120.00 C865.42,120.00 866.66,121.62 870.90,129.75 C873.70,135.11 877.25,141.75 878.80,144.50 C882.25,150.60 902.18,187.36 920.03,220.50 C922.10,224.35 927.68,234.48 932.42,243.00 C937.17,251.52 941.30,259.46 941.60,260.64 C942.37,263.57 939.98,267.54 930.45,279.25 ZM 904.17 442.22 C897.75,450.86 892.28,457.93 892.00,457.92 C891.72,457.92 885.88,453.69 879.00,448.52 C872.12,443.35 863.69,437.01 860.25,434.43 L 854.00 429.74 L 854.00 407.04 C854.00,394.55 854.27,384.07 854.59,383.74 C855.21,383.12 859.85,386.31 878.27,400.00 C884.19,404.40 889.91,408.00 890.97,408.00 C892.88,408.00 895.83,404.24 927.84,361.00 C934.15,352.48 940.52,343.92 941.99,342.00 C946.43,336.18 956.11,323.26 966.71,309.00 C981.29,289.39 987.83,280.96 991.52,277.00 C993.32,275.08 996.81,270.35 999.28,266.50 C1003.85,259.38 1009.24,252.07 1028.00,227.49 C1033.78,219.92 1039.82,211.88 1041.44,209.62 C1043.05,207.35 1046.89,202.35 1049.96,198.50 C1053.03,194.65 1056.66,189.82 1058.02,187.76 C1059.39,185.70 1060.77,184.01 1061.10,184.01 C1061.86,184.00 1063.00,205.05 1063.00,219.10 L 1063.00 229.88 L 1054.21 241.69 C1042.29,257.70 1042.55,257.36 1033.56,269.11 C1029.20,274.83 1025.34,279.73 1024.98,280.00 C1024.62,280.27 1023.92,281.23 1023.41,282.11 C1022.91,283.00 1021.30,285.25 1019.84,287.11 C1018.38,288.98 1011.60,297.92 1004.77,307.00 C973.41,348.70 959.59,367.19 948.00,382.97 C935.43,400.08 925.74,413.18 904.17,442.22 ZM 520.34 61.25 C521.38,67.83 521.44,70.38 520.58,71.55 C518.57,74.30 518.00,71.90 518.08,61.08 C518.17,49.04 518.42,49.06 520.34,61.25 ZM 45.00 367.75 C45.00,368.44 43.88,369.00 42.50,369.00 C40.20,369.00 40.00,368.63 40.00,364.50 C40.00,362.02 40.23,360.00 40.51,360.00 C41.32,360.00 44.99,366.35 45.00,367.75 ZM 852.50 45.00 C852.16,45.55 851.46,46.00 850.94,46.00 C850.42,46.00 850.00,45.55 850.00,45.00 C850.00,44.45 850.70,44.00 851.56,44.00 C852.42,44.00 852.84,44.45 852.50,45.00 Z" fill="rgb(191,189,207)"/>
<path d="M 119.74 411.06 C121.26,409.23 129.54,397.16 139.25,382.64 C127.99,399.67 119.06,413.66 118.77,414.78 C118.29,416.62 119.03,417.62 122.84,420.26 C125.40,422.04 128.27,423.95 129.21,424.50 C130.15,425.05 140.50,432.00 152.21,439.94 C163.92,447.88 183.18,460.80 195.00,468.66 C218.69,484.39 221.82,486.51 233.50,494.71 C237.90,497.80 246.39,503.42 252.37,507.21 C258.35,511.00 263.89,514.75 264.69,515.54 C265.48,516.34 269.25,518.84 273.07,521.11 C276.88,523.37 280.00,525.52 280.00,525.89 C280.00,526.25 281.69,527.43 283.75,528.51 C285.81,529.60 287.73,530.72 288.00,531.01 C288.27,531.30 297.27,537.38 308.00,544.51 C318.73,551.64 328.09,558.05 328.82,558.74 C329.55,559.43 332.25,561.21 334.82,562.70 C337.39,564.19 341.79,567.11 344.59,569.20 C347.39,571.29 350.17,573.00 350.76,573.00 C351.35,573.00 351.98,573.34 352.17,573.75 C352.62,574.77 373.89,589.00 374.97,589.00 C375.45,589.00 375.98,589.34 376.17,589.75 C376.35,590.17 382.53,594.55 389.90,599.50 C397.26,604.45 409.13,612.44 416.26,617.25 C423.40,622.06 429.60,626.00 430.05,626.00 C431.31,626.00 436.74,618.94 448.86,601.50 C454.97,592.70 461.00,584.20 462.24,582.61 C466.12,577.64 476.09,562.63 477.32,559.89 C477.97,558.45 480.08,555.92 482.00,554.26 C485.39,551.35 486.13,551.18 505.01,549.12 C515.74,547.96 525.23,547.00 526.11,547.00 C527.42,547.00 527.92,549.22 528.91,559.25 C529.57,565.99 531.04,579.15 532.18,588.50 C533.29,597.69 533.79,603.41 533.86,611.06 C533.79,607.35 533.58,604.86 533.21,604.63 C532.63,604.27 530.85,605.90 529.24,608.24 C527.64,610.58 524.31,615.42 521.84,619.00 C519.37,622.58 513.50,631.12 508.80,638.00 C504.10,644.88 496.84,655.45 492.67,661.50 C488.50,667.55 480.28,679.62 474.41,688.33 C468.53,697.04 463.13,704.40 462.40,704.68 C461.21,705.13 456.89,702.41 440.50,690.90 C437.75,688.97 430.33,683.84 424.00,679.51 C417.67,675.17 410.16,669.91 407.29,667.81 C404.43,665.72 401.76,664.00 401.36,664.00 C400.96,664.00 399.70,663.17 398.56,662.15 C397.43,661.13 382.55,650.70 365.50,638.97 C323.41,610.00 324.02,610.43 319.50,607.22 C317.30,605.65 310.55,600.99 304.50,596.84 C298.45,592.70 289.00,586.17 283.50,582.33 C278.00,578.49 267.65,571.36 260.50,566.48 C247.48,557.60 238.27,551.24 232.99,547.50 C223.78,540.97 190.42,517.91 173.00,506.03 C165.02,500.59 155.57,494.04 152.00,491.48 C148.43,488.92 142.57,484.86 139.00,482.45 C135.43,480.05 128.68,475.39 124.00,472.10 C110.01,462.26 85.53,445.34 68.50,433.75 C48.17,419.91 47.84,419.59 48.03,414.52 C48.04,414.17 48.06,413.84 48.07,413.52 C48.19,410.69 48.25,409.25 47.56,408.59 C46.84,407.90 45.32,408.06 42.22,408.38 C41.89,408.41 41.54,408.45 41.17,408.48 C33.16,409.29 30.27,408.32 22.00,402.05 L 16.50 397.89 L 15.81 403.19 C15.62,404.63 15.47,405.99 15.34,407.33 C15.50,404.93 15.71,402.08 15.96,398.56 C16.81,386.63 17.34,383.87 19.62,379.35 C22.75,373.16 27.58,369.57 33.89,368.74 C38.82,368.08 39.96,366.90 39.98,362.40 C39.99,362.15 40.04,361.83 40.14,361.44 C40.05,362.25 40.00,363.32 40.00,364.50 C40.00,368.63 40.20,369.00 42.50,369.00 C43.88,369.00 45.00,368.44 45.00,367.75 C44.99,366.40 41.56,360.43 40.61,360.02 C42.23,355.78 46.69,348.10 49.96,344.29 C50.53,343.63 51.00,342.87 51.00,342.60 C51.00,342.34 54.71,336.57 59.25,329.79 C74.58,306.89 83.73,292.51 84.46,290.18 C84.85,288.91 86.43,286.44 87.97,284.68 C89.50,282.93 100.56,266.88 112.53,249.00 C134.77,215.80 143.32,204.08 166.62,174.91 C187.24,149.09 215.67,122.43 238.25,107.72 C242.51,104.94 246.00,102.29 246.00,101.83 C246.00,101.38 246.49,101.00 247.10,101.00 C247.70,101.00 249.60,99.99 251.32,98.75 C253.05,97.51 255.19,96.05 256.08,95.50 C256.97,94.95 259.90,93.05 262.60,91.27 C265.29,89.49 268.41,88.03 269.53,88.02 C270.64,88.01 272.58,87.28 273.83,86.40 C278.09,83.42 293.10,76.14 296.30,75.50 C298.06,75.14 302.88,73.80 307.00,72.51 C311.22,71.19 321.07,69.44 329.50,68.52 C337.75,67.62 345.85,66.48 347.50,65.99 C349.15,65.50 354.33,64.82 359.00,64.48 C371.42,63.59 408.47,59.26 423.50,56.95 C430.65,55.85 439.20,54.54 442.50,54.04 C445.80,53.53 451.54,52.82 455.25,52.44 L 462.00 51.77 L 462.01 56.63 C462.01,61.06 463.16,70.21 464.60,77.25 C465.10,79.71 465.59,80.00 469.27,80.00 C471.53,80.00 478.81,79.12 485.44,78.04 C492.07,76.96 502.00,75.49 507.50,74.78 L 517.50 73.48 L 518.05 42.00 L 522.03 42.00 C524.21,42.00 526.00,41.64 526.00,41.20 C526.00,40.76 531.29,39.86 537.75,39.20 C544.21,38.55 555.80,37.32 563.50,36.49 C571.20,35.65 582.00,34.51 587.50,33.95 C593.00,33.39 601.33,32.22 606.00,31.36 C609.22,30.76 611.15,30.35 613.10,30.11 C617.07,29.63 621.12,29.90 636.43,30.91 C638.42,31.04 640.60,31.19 643.00,31.34 C699.22,35.02 726.26,36.72 748.50,37.99 C774.85,39.50 796.45,40.84 823.50,42.63 C833.14,43.26 843.67,43.88 850.57,44.23 C850.22,44.41 850.00,44.69 850.00,45.00 C850.00,45.55 850.42,46.00 850.94,46.00 C851.46,46.00 852.16,45.55 852.50,45.00 C852.66,44.74 852.65,44.50 852.50,44.32 C854.16,44.40 855.52,44.46 856.50,44.49 C861.45,44.64 866.17,45.00 867.00,45.30 C867.83,45.60 881.10,46.57 896.50,47.47 C969.56,51.71 1010.81,54.48 1011.52,55.19 C1012.02,55.69 1020.26,75.25 1023.65,84.00 C1025.04,87.57 1026.55,90.96 1027.01,91.52 C1027.48,92.08 1030.41,99.05 1033.52,107.02 C1036.64,114.98 1039.80,122.85 1040.56,124.50 C1045.24,134.72 1057.08,165.51 1056.83,166.81 C1056.75,167.19 1057.49,169.30 1058.46,171.50 C1059.44,173.70 1060.68,176.62 1061.21,178.00 C1061.70,179.26 1062.29,189.55 1062.59,201.63 C1062.19,192.12 1061.57,184.00 1061.10,184.01 C1060.77,184.01 1059.39,185.70 1058.02,187.76 C1056.66,189.82 1053.03,194.65 1049.96,198.50 C1046.89,202.35 1043.05,207.35 1041.44,209.62 C1039.82,211.88 1033.78,219.92 1028.00,227.49 C1009.24,252.07 1003.85,259.38 999.28,266.50 C996.81,270.35 993.32,275.08 991.52,277.00 C987.83,280.96 981.29,289.39 966.71,309.00 C956.11,323.26 946.43,336.18 941.99,342.00 C940.52,343.92 934.15,352.48 927.84,361.00 C895.83,404.24 892.88,408.00 890.97,408.00 C889.91,408.00 884.19,404.40 878.27,400.00 C859.85,386.31 855.21,383.12 854.59,383.74 C854.27,384.07 854.00,394.55 854.00,407.04 L 854.00 424.05 L 853.78 406.27 C853.57,388.16 853.79,382.63 854.75,382.26 C855.44,382.00 856.00,381.24 856.00,380.58 C856.00,379.92 856.81,378.50 857.79,377.44 C858.78,376.37 860.98,373.48 862.68,371.00 C864.38,368.52 867.17,364.92 868.87,363.00 C870.57,361.08 871.98,359.23 871.98,358.90 C871.99,358.57 872.89,357.22 873.98,355.90 C876.86,352.41 877.34,351.77 879.14,349.00 C880.04,347.62 881.61,345.53 882.63,344.34 C883.66,343.16 885.17,341.17 886.00,339.93 C886.83,338.69 891.22,333.02 895.76,327.31 C900.30,321.61 905.40,314.48 907.10,311.47 C908.80,308.46 910.52,306.00 910.91,306.00 C911.55,306.00 914.17,302.49 925.21,286.87 C927.86,283.14 927.88,282.95 926.29,279.77 C925.39,277.97 924.10,275.38 923.42,274.00 C919.63,266.31 909.52,247.80 906.35,242.77 C908.62,246.38 913.51,255.14 919.03,265.50 L 919.73 266.81 C925.65,277.91 927.32,281.05 928.63,280.91 C929.20,280.84 929.70,280.16 930.45,279.25 C939.98,267.54 942.37,263.57 941.60,260.64 C941.30,259.46 937.17,251.52 932.42,243.00 C927.68,234.48 922.10,224.35 920.03,220.50 C902.18,187.36 882.25,150.60 878.80,144.50 C877.25,141.75 873.70,135.11 870.90,129.75 C866.66,121.62 865.42,120.00 863.46,120.00 C862.17,120.00 855.57,119.58 848.80,119.07 C826.05,117.34 733.38,111.09 721.00,110.45 C716.33,110.20 706.20,109.54 698.50,108.96 C637.17,104.40 626.99,103.99 612.50,105.53 C604.80,106.35 592.11,107.65 584.31,108.42 C576.51,109.18 569.73,110.05 569.26,110.34 C568.32,110.92 568.86,117.23 571.89,140.88 C572.97,149.34 574.32,156.72 574.88,157.28 C575.53,157.93 578.90,157.94 588.47,157.06 L 588.33 157.08 C581.64,157.74 575.59,158.64 574.89,159.07 C573.88,159.70 574.28,165.23 576.87,186.18 C578.08,195.91 578.83,202.25 579.29,207.97 C579.28,207.94 579.27,207.93 579.26,207.92 C578.84,207.53 567.25,208.69 553.50,210.50 C539.75,212.31 520.17,214.54 510.00,215.46 C499.83,216.37 488.35,217.75 484.50,218.53 C477.41,219.96 453.28,222.67 438.32,223.71 L 430.14 224.27 L 429.57 220.89 C429.25,219.02 427.89,208.27 426.54,197.00 C425.20,185.73 423.62,172.68 423.05,168.00 C422.47,163.32 421.32,153.88 420.49,147.00 C419.66,140.12 418.31,129.55 417.48,123.50 C416.66,117.45 415.73,110.59 415.43,108.25 C415.13,105.91 414.41,104.00 413.84,104.00 C413.17,104.00 412.93,107.57 413.15,114.07 C413.43,122.25 413.21,124.29 412.00,124.94 C411.17,125.38 401.50,126.96 390.50,128.46 C355.23,133.24 349.16,134.51 336.31,139.77 C329.82,142.44 321.80,145.65 318.50,146.92 C309.34,150.45 284.82,162.90 282.00,165.46 C280.62,166.71 274.06,171.81 267.41,176.80 C248.79,190.76 232.28,207.35 215.75,228.70 C189.43,262.71 175.59,281.76 161.08,303.96 C153.14,316.09 146.05,326.81 145.32,327.76 C142.17,331.88 97.00,400.50 97.00,401.16 C97.00,402.27 114.17,414.69 116.00,414.90 C116.28,414.94 117.96,413.21 119.74,411.06 ZM 520.34 61.25 C518.42,49.06 518.17,49.04 518.08,61.08 C518.00,71.90 518.57,74.30 520.58,71.55 C521.44,70.38 521.38,67.83 520.34,61.25 ZM 579.63 213.07 C580.00,220.17 579.96,227.59 579.81,241.00 L 579.50 269.50 L 579.76 239.06 C579.86,228.32 579.80,218.69 579.63,213.07 ZM 14.94 414.32 C14.84,418.77 15.04,423.80 15.50,430.94 C15.94,437.68 16.11,441.10 17.44,443.63 C16.11,441.10 15.93,437.68 15.49,430.94 C15.11,425.18 14.89,421.98 14.86,418.79 C14.84,417.37 14.87,415.96 14.94,414.32 ZM 892.15 457.80 C892.84,457.12 895.56,453.65 899.18,448.88 C895.36,453.99 892.83,457.35 892.41,457.86 C892.38,457.89 892.30,457.87 892.15,457.80 ZM 533.31 636.00 C532.92,644.70 532.42,649.16 531.76,650.08 C532.35,649.26 532.91,643.32 533.31,636.00 ZM 1063.00 221.95 L 1063.15 229.68 L 1063.00 229.88 ZM 940.16 393.62 C942.74,390.12 945.30,386.64 948.00,382.97 C954.47,374.16 961.63,364.51 972.15,350.45 C961.60,364.55 954.48,374.15 948.00,382.98 C945.77,386.01 943.11,389.63 940.16,393.62 ZM 159.46 352.30 C167.93,339.65 172.89,332.45 178.30,324.99 C173.00,332.30 168.04,339.50 159.46,352.30 ZM 854.07 429.79 L 860.25 434.43 C861.06,435.03 862.14,435.84 863.41,436.80 C862.40,436.04 861.36,435.26 860.28,434.46 Z" fill="rgb(209,206,226)"/>
<path d="M 0.00 394.00 L 0.00 0.00 L 547.00 0.00 L 1094.00 0.00 L 1094.00 394.00 L 1094.00 788.00 L 547.00 788.00 L 0.00 788.00 L 0.00 394.00 ZM 496.54 701.41 C515.22,674.13 531.07,651.03 531.76,650.08 C532.62,648.89 533.21,641.67 533.63,626.92 C534.15,608.78 533.93,602.90 532.18,588.50 C531.04,579.15 529.57,565.99 528.91,559.25 C527.92,549.22 527.42,547.00 526.11,547.00 C525.23,547.00 515.74,547.96 505.01,549.12 C486.13,551.18 485.39,551.35 482.00,554.26 C480.08,555.92 477.97,558.45 477.32,559.89 C476.09,562.63 466.12,577.64 462.24,582.61 C461.00,584.20 454.97,592.70 448.86,601.50 C436.74,618.94 431.31,626.00 430.05,626.00 C429.60,626.00 423.40,622.06 416.26,617.25 C409.13,612.44 397.26,604.45 389.90,599.50 C382.53,594.55 376.35,590.17 376.17,589.75 C375.98,589.34 375.45,589.00 374.97,589.00 C373.89,589.00 352.62,574.77 352.17,573.75 C351.98,573.34 351.35,573.00 350.76,573.00 C350.17,573.00 347.39,571.29 344.59,569.20 C341.79,567.11 337.39,564.19 334.82,562.70 C332.25,561.21 329.55,559.43 328.82,558.74 C328.09,558.05 318.73,551.64 308.00,544.51 C297.27,537.38 288.27,531.30 288.00,531.01 C287.73,530.72 285.81,529.60 283.75,528.51 C281.69,527.43 280.00,526.25 280.00,525.89 C280.00,525.52 276.88,523.37 273.07,521.11 C269.25,518.84 265.48,516.34 264.69,515.54 C263.89,514.75 258.35,511.00 252.37,507.21 C246.39,503.42 237.90,497.80 233.50,494.71 C221.82,486.51 218.69,484.39 195.00,468.66 C183.18,460.80 163.92,447.88 152.21,439.94 C140.50,432.00 130.15,425.05 129.21,424.50 C128.27,423.95 125.40,422.04 122.84,420.26 C119.03,417.62 118.29,416.62 118.77,414.78 C119.09,413.55 129.84,396.78 142.65,377.52 C171.71,333.81 174.10,330.38 190.21,309.00 C220.42,268.90 230.33,256.74 242.21,245.22 C248.97,238.66 256.08,231.94 258.00,230.31 C264.62,224.67 284.51,210.28 290.00,207.16 C308.56,196.61 344.73,181.96 357.00,180.03 C361.12,179.38 367.88,178.23 372.00,177.49 C384.57,175.20 413.98,171.64 414.66,172.32 C415.26,172.92 416.69,182.69 419.00,202.00 C419.56,206.68 420.47,213.43 421.03,217.00 C421.59,220.57 423.43,234.52 425.11,248.00 C429.52,283.33 429.93,286.26 430.51,286.85 C431.04,287.37 442.43,286.20 463.50,283.46 C469.55,282.67 485.98,280.65 500.00,278.98 C514.03,277.30 531.12,275.22 538.00,274.35 C544.88,273.49 557.03,272.04 565.00,271.14 L 579.50 269.50 L 579.81 241.00 C580.11,213.85 579.97,211.25 576.87,186.18 C574.28,165.23 573.88,159.70 574.89,159.07 C575.59,158.64 581.64,157.74 588.33,157.08 C595.02,156.41 604.33,155.45 609.00,154.94 C620.12,153.72 637.86,153.75 653.20,155.01 C666.64,156.12 708.59,159.08 711.00,159.09 C712.65,159.10 733.77,160.49 755.50,162.03 C769.15,162.99 789.62,164.34 838.50,167.49 C851.70,168.35 863.48,169.26 864.67,169.52 C866.68,169.96 873.45,181.43 885.91,205.50 C887.34,208.25 888.76,210.73 889.07,211.00 C889.75,211.59 904.00,237.93 904.00,238.59 C904.00,238.84 905.06,240.72 906.35,242.77 C909.52,247.80 919.63,266.31 923.42,274.00 C924.10,275.38 925.39,277.97 926.29,279.77 C927.88,282.95 927.86,283.14 925.21,286.87 C914.17,302.49 911.55,306.00 910.91,306.00 C910.52,306.00 908.80,308.46 907.10,311.47 C905.40,314.48 900.30,321.61 895.76,327.31 C891.22,333.02 886.83,338.69 886.00,339.93 C885.17,341.17 883.66,343.16 882.63,344.34 C881.61,345.53 880.04,347.62 879.14,349.00 C877.34,351.77 876.86,352.41 873.98,355.90 C872.89,357.22 871.99,358.57 871.98,358.90 C871.98,359.23 870.57,361.08 868.87,363.00 C867.17,364.92 864.38,368.52 862.68,371.00 C860.98,373.48 858.78,376.37 857.79,377.44 C856.81,378.50 856.00,379.92 856.00,380.58 C856.00,381.24 855.44,382.00 854.75,382.26 C853.79,382.63 853.57,388.16 853.78,406.27 L 854.07 429.79 L 860.28 434.46 C883.93,452.20 892.14,458.18 892.41,457.86 C894.17,455.74 932.21,404.49 948.00,382.98 C959.58,367.20 973.22,348.94 1004.77,307.00 C1011.60,297.92 1018.38,288.98 1019.84,287.11 C1021.30,285.25 1022.91,283.00 1023.41,282.11 C1023.92,281.23 1024.62,280.27 1024.98,280.00 C1025.34,279.73 1029.20,274.83 1033.56,269.11 C1042.55,257.35 1042.27,257.73 1054.28,241.59 L 1063.15 229.68 L 1062.67 205.09 C1062.40,191.57 1061.75,179.38 1061.21,178.00 C1060.68,176.62 1059.44,173.70 1058.46,171.50 C1057.49,169.30 1056.75,167.19 1056.83,166.81 C1057.08,165.51 1045.24,134.72 1040.56,124.50 C1039.80,122.85 1036.64,114.98 1033.52,107.02 C1030.41,99.05 1027.48,92.08 1027.01,91.52 C1026.55,90.96 1025.04,87.57 1023.65,84.00 C1020.26,75.25 1012.02,55.69 1011.52,55.19 C1010.81,54.48 969.56,51.71 896.50,47.47 C881.10,46.57 867.83,45.60 867.00,45.30 C866.17,45.00 861.45,44.64 856.50,44.49 C851.55,44.34 836.70,43.50 823.50,42.63 C796.45,40.84 774.85,39.50 748.50,37.99 C726.26,36.72 699.22,35.02 643.00,31.34 C613.14,29.39 616.65,29.39 606.00,31.36 C601.33,32.22 593.00,33.39 587.50,33.95 C582.00,34.51 571.20,35.65 563.50,36.49 C555.80,37.32 544.21,38.55 537.75,39.20 C531.29,39.86 526.00,40.76 526.00,41.20 C526.00,41.64 524.21,42.00 522.03,42.00 L 518.05 42.00 L 517.78 57.74 L 517.50 73.48 L 507.50 74.78 C502.00,75.49 492.07,76.96 485.44,78.04 C478.81,79.12 471.53,80.00 469.27,80.00 C465.59,80.00 465.10,79.71 464.60,77.25 C463.16,70.21 462.01,61.06 462.01,56.63 L 462.00 51.77 L 455.25 52.44 C451.54,52.82 445.80,53.53 442.50,54.04 C439.20,54.54 430.65,55.85 423.50,56.95 C408.47,59.26 371.42,63.59 359.00,64.48 C354.33,64.82 349.15,65.50 347.50,65.99 C345.85,66.48 337.75,67.62 329.50,68.52 C321.07,69.44 311.22,71.19 307.00,72.51 C302.88,73.80 298.06,75.14 296.30,75.50 C293.10,76.14 278.09,83.42 273.83,86.40 C272.58,87.28 270.64,88.01 269.53,88.02 C268.41,88.03 265.29,89.49 262.60,91.27 C259.90,93.05 256.97,94.95 256.08,95.50 C255.19,96.05 253.05,97.51 251.32,98.75 C249.60,99.99 247.70,101.00 247.10,101.00 C246.49,101.00 246.00,101.38 246.00,101.83 C246.00,102.29 242.51,104.94 238.25,107.72 C215.67,122.43 187.24,149.09 166.62,174.91 C143.32,204.08 134.77,215.80 112.53,249.00 C100.56,266.88 89.50,282.93 87.97,284.68 C86.43,286.44 84.85,288.91 84.46,290.18 C83.73,292.51 74.58,306.89 59.25,329.79 C54.71,336.57 51.00,342.34 51.00,342.60 C51.00,342.87 50.53,343.63 49.96,344.29 C45.89,349.02 40.00,359.73 39.98,362.40 C39.96,366.90 38.82,368.08 33.89,368.74 C27.58,369.57 22.75,373.16 19.62,379.35 C17.34,383.87 16.81,386.63 15.96,398.56 C14.57,418.07 14.58,417.17 15.49,430.94 C16.41,445.01 16.19,444.63 27.70,451.83 C32.89,455.08 33.21,455.15 40.51,454.47 L 48.00 453.77 L 48.00 459.29 C48.00,465.50 47.31,464.82 66.50,477.86 C70.90,480.85 103.30,503.18 138.50,527.48 C173.70,551.78 205.88,573.97 210.00,576.78 C214.12,579.60 222.63,585.41 228.90,589.70 C235.16,593.99 241.00,597.95 241.86,598.50 C247.15,601.88 267.41,616.04 272.17,619.67 C275.28,622.05 278.16,624.00 278.56,624.00 C278.96,624.00 281.14,625.47 283.40,627.27 C285.65,629.08 290.80,632.79 294.83,635.52 C298.86,638.26 304.09,641.85 306.44,643.50 C308.79,645.15 314.49,649.06 319.11,652.20 C323.72,655.33 330.90,660.28 335.06,663.20 C357.84,679.18 362.11,682.16 368.65,686.62 C372.59,689.30 384.51,697.55 395.15,704.94 C405.79,712.33 418.55,721.15 423.50,724.55 C428.45,727.94 439.02,735.26 447.00,740.82 C454.98,746.38 461.74,750.94 462.04,750.96 C462.34,750.98 477.86,728.68 496.54,701.41 Z" fill="rgb(254,254,254)"/>
</g>
</svg>